<?xml version="1.0" encoding="utf-8"?>
<!-- Generator: Adobe Illustrator 18.1.1, SVG Export Plug-In . SVG Version: 6.00 Build 0)  -->
<svg version="1.0" id="Layer_1" xmlns="http://www.w3.org/2000/svg" xmlns:xlink="http://www.w3.org/1999/xlink" x="0px" y="0px"
	 viewBox="0 0 970 200" enable-background="new 0 0 970 200" xml:space="preserve">
<rect x="-2.5" y="-14" fill="#492C14" width="987.5" height="214.8"/>
<path id="path29_2_" inkscape:export-xdpi="90" inkscape:export-ydpi="90" inkscape:export-filename="C:\Users\anon\Desktop\logo4.0.png" inkscape:connector-curvature="0" fill="#FFFFFF" d="
	M783.9,93.4c0-13.8,4.7-26,14.3-36.8c3.5-4,6.3-5.9,8.2-5.9c0.7,0,1.4,0.2,1.9,0.7c0.5,0.5,0.9,1,0.9,1.7c0,1-1.2,2.6-3.7,5.1
	c-9.9,9.6-15,21.4-15,35.6c0,15.7,5.2,28.4,15.5,38.2c2.1,1.9,3.1,3.5,3.1,4.7c0,0.7-0.3,1.4-0.9,1.9s-1.2,0.9-1.9,0.9
	c-2.4,0-5.8-2.8-10.1-8.4C787.9,120.7,783.9,108.2,783.9,93.4L783.9,93.4z"/>
<path id="path31_2_" inkscape:export-xdpi="90" inkscape:export-ydpi="90" inkscape:export-filename="C:\Users\anon\Desktop\logo4.0.png" inkscape:connector-curvature="0" fill="#FFFFFF" d="
	M915.8,96.9c0,13.8-4.7,26-14.3,36.8c-3.5,4-6.3,5.9-8.2,5.9c-0.7,0-1.4-0.2-1.9-0.7c-0.5-0.5-0.9-1.2-0.9-1.9c0-1,1.2-2.6,3.7-4.9
	c9.9-9.6,15-21.4,15-35.6c0-15.7-5.2-28.4-15.5-38.2c-2.1-1.9-3.1-3.5-3.1-4.7c0-0.7,0.3-1.4,0.9-1.9c0.5-0.5,1.2-0.9,1.9-0.9
	c2.3,0,5.8,2.8,10.1,8.4C911.6,69.7,915.8,82.2,915.8,96.9L915.8,96.9z"/>
<g id="g33_2_" transform="matrix(2.5023894,0,0,2.5023894,10.019816,292.82522)" inkscape:export-xdpi="90" inkscape:export-ydpi="90" inkscape:export-filename="C:\Users\anon\Desktop\logo4.0.png">
	<path id="path37_2_" inkscape:connector-curvature="0" fill="#FFFFFF" d="M347.6-62.5h-24.2c-0.8,0-1.5-0.6-1.5-1.5
		c0-0.8,0.6-1.5,1.5-1.5h24.2c0.8,0,1.5,0.6,1.5,1.5C349.1-63.1,348.5-62.5,347.6-62.5z"/>
</g>
<path fill="#FFFFFF" d="M837.1,58.2c0,0,5,3.5,5,9.8c0,10.8-14.7,22.9-14.7,34.2c0,12.2,9.3,20.1,18.3,22.5c1.3,0.3,1.8-1.2,0.3-1.6
	c-3.7-0.9-7.7-5.7-7.7-13.2c0-6.9,6.6-9.6,9.4-12.9c2.8-3.4,2.1-7.8,0.5-9.1c-1.6-1.3-0.5-3,2.4-1c2.9,2,5.3,5.8,4.4,9.4
	c-1.1,4.6,0.4,7.2,2.7,7.6c2.4,0.3,5.1-0.9,4.8-3.1c-0.3-2.2-1.6-4.6-0.8-4.6c1.7,0,5.3,4.2,5.3,10.8c0,6.7-5.5,11.3-7.2,13.1
	c-1,1.1,0.3,2.4,1.7,1.8c0.7-0.3,2.2-1.2,3.1-1.8c4.4-3.1,11.2-9.4,11.2-21c0-12.1-4.6-17.6-9.3-22.2c-4.6-4.6-5.8-3.4-4.5-1.2
	c4,6.8,1.6,9.1-1.3,9.1c-3.4,0-3.6-7.7-4.9-13.6c-2.9-13.1-14.7-15.3-17-15.4S834.4,57,837.1,58.2z"/>
<g>
	<path fill="#FFFFFF" d="M85.5,110.7V83.1c0-14.4,7.7-21.6,23-21.6c6.2,0,11.2,1.4,15,4.2c4.3,3.4,6.5,7.9,6.5,13.6
		c0,2.7-1.1,4.1-3.3,4.1c-1.6,0-2.7-1.3-3.4-3.9c-0.4-2.2-1.3-4.3-2.5-6.3c-1.9-3.5-6.2-5.2-12.8-5.2c-5.7,0-9.8,1.4-12.3,4.3
		c-2.3,2.6-3.5,6.8-3.5,12.6v23.1c0,6,1.2,10.3,3.7,12.8c2.6,2.9,6.8,4.3,12.5,4.3c8.6,0,13.6-3,14.9-9.1c0.5-2.2,0.8-3.4,0.8-3.5
		c0.5-1.3,1.4-1.9,2.6-1.9c2.2,0,3.3,1.4,3.3,4.1c0,5.4-2.3,9.8-6.9,13.1c-3.7,2.4-8.5,3.7-14.5,3.7c-7.1,0-12.6-1.7-16.7-5
		C87.7,123,85.5,117.7,85.5,110.7z"/>
	<path fill="#FFFFFF" d="M140.3,114.6V96.4c0-11.1,7.4-16.7,22.3-16.7c14.8,0,22.2,5.6,22.2,16.7v18.2c0,11.1-7.3,16.7-21.9,16.7
		C147.8,131.3,140.3,125.7,140.3,114.6z M178.4,114.6V96.4c0-6.9-5.4-10.4-16.2-10.4c-10.3,0-15.5,3.5-15.5,10.4v18.2
		c0,6.9,5.3,10.4,16,10.3C173.2,124.9,178.4,121.5,178.4,114.6z"/>
	<path fill="#FFFFFF" d="M233.6,125.3c-3.1,2.3-5.7,3.8-8,4.6c-2.4,0.9-5.4,1.3-9,1.3c-6,0-10.8-1.2-14.4-3.7
		c-4.2-2.9-6.4-7.1-6.4-12.8V96c0-5.5,2.1-9.7,6.2-12.5c3.6-2.5,8.2-3.8,13.9-3.8c3.8,0,6.9,0.4,9.4,1.2c2.5,0.8,5.1,2.4,7.9,4.7V63
		c0-3,1-4.5,3.1-4.5c2.2,0,3.3,1.5,3.3,4.5v64.9c0,2.3-1,3.4-3,3.4c-1.2,0-2-0.7-2.5-2.1C233.9,128.1,233.7,126.8,233.6,125.3z
		 M233.3,117.8V92.3c-3.1-2.3-5.7-3.8-7.6-4.6c-2.6-1.1-5.5-1.6-8.7-1.6c-4.1,0-7.4,0.8-10,2.3c-3.1,1.9-4.7,4.7-4.7,8.4v17.4
		c0,3.8,1.6,6.6,4.9,8.4c2.6,1.5,6,2.2,10.1,2.2c3.4,0,6.3-0.6,8.8-1.7C228.2,122.1,230.6,120.4,233.3,117.8z"/>
	<path fill="#FFFFFF" d="M257.7,106.6v7c0,7.5,5.4,11.3,16.1,11.3c3.9,0,7.1-0.4,9.6-1.2c1.3-0.4,3.5-1.6,6.6-3.7
		c2-1.8,3.3-2.7,3.9-2.7c1.8,0,2.7,0.9,2.7,2.8c0,1.9-1.3,3.9-4,6c-4.2,3.4-10.6,5.1-19.1,5.1c-14.8,0-22.2-5.8-22.2-17.6V95.9
		c0-4.1,1.5-7.5,4.5-10.5c4.1-3.8,10.1-5.7,18.2-5.7c14.5,0,21.8,7.2,21.8,21.6c0,3.5-1.3,5.3-4,5.3H257.7z M257.7,100.3h31.7
		c0-9.5-5.4-14.3-16.1-14.3c-4,0-7.5,0.9-10.6,2.6c-3.3,2.3-5,4.9-5,8V100.3z"/>
	<path fill="#FFFFFF" d="M345.3,117.5V66.1c0-3.1,1.1-4.6,3.3-4.6c2.3,0,3.5,1.5,3.5,4.6v62c0,2.3-1.1,3.5-3.4,3.5
		c-1.5,0-2.8-0.7-3.6-2.1l-32.1-53.9v52.2c0,2.5-1.2,3.8-3.6,3.8c-2.1,0-3.2-1.3-3.2-3.8V66.1c0-3.1,1.1-4.6,3.3-4.6
		c1.3,0,2.5,0.9,3.6,2.6L345.3,117.5z"/>
	<path fill="#FFFFFF" d="M362.3,114.6V96.4c0-11.1,7.4-16.7,22.3-16.7c14.8,0,22.2,5.6,22.2,16.7v18.2c0,11.1-7.3,16.7-21.9,16.7
		C369.8,131.3,362.3,125.7,362.3,114.6z M400.4,114.6V96.4c0-6.9-5.4-10.4-16.2-10.4c-10.3,0-15.5,3.5-15.5,10.4v18.2
		c0,6.9,5.3,10.4,16,10.3C395.1,124.9,400.4,121.5,400.4,114.6z"/>
	<path fill="#FFFFFF" d="M424.9,85.8c3.3-2.4,6.1-4,8.4-4.7c2.2-0.9,5.3-1.3,9-1.3c13.3,0,20,5.5,20,16.6v30.5c0,3-1.1,4.4-3.3,4.4
		c-2.1,0-3.1-1.5-3.1-4.4V96.5c0-3.6-1.1-6.3-3.3-8c-2.2-1.7-5.7-2.5-10.6-2.5c-3.6,0-6.6,0.6-9,1.9c-2,0.9-4.7,2.6-8.1,5.1v33.7
		c0,3-1.1,4.4-3.2,4.4c-2.2,0-3.3-1.5-3.3-4.4V83.5c0-2.5,1-3.8,3.1-3.8c1.1,0,1.9,0.8,2.5,2.4C424.3,83.3,424.6,84.6,424.9,85.8z"
		/>
	<path fill="#FFFFFF" d="M480.3,85c5-3.6,10.8-5.3,17.2-5.3c13.4,0,20.2,5.6,20.2,16.7v18.3c0,5.2-1.9,9.4-5.7,12.4
		c-3.4,2.7-8,4.1-13.8,4.1c-6.9,0-12.8-1.8-17.9-5.4v20.9c0,3.2-1.1,4.8-3.2,4.8c-2.2,0-3.3-1.6-3.3-4.8V84.4c0-3.2,0.9-4.7,2.6-4.7
		c1,0,1.8,0.7,2.5,2C479.4,82.8,479.9,84,480.3,85z M480.3,118.7c4.6,4.2,10.2,6.2,16.8,6.2c4,0,7.2-0.8,9.7-2.3
		c3-1.8,4.5-4.4,4.5-7.8V96.3c0-3.8-1.6-6.6-4.7-8.4c-2.5-1.3-5.8-1.9-9.9-1.9c-3.7,0-6.7,0.5-9,1.6c-2,1-4.5,2.8-7.3,5.6V118.7z"/>
	<path fill="#FFFFFF" d="M542.2,123.9V87h-9.6c-2.6,0-3.9-1.1-3.9-3.2c0-2.1,1.3-3.2,3.9-3.2h12.7c2.2,0,3.3,1.9,3.3,5.5
		c4-4.3,8.2-6.5,12.6-6.5c3.7,0,6.6,1.1,8.7,3.4c2.2,2.3,3.3,5.3,3.3,8.9c0,2.5-1.1,3.8-3.2,3.8c-1.3,0-2.2-0.8-2.7-2.5
		c-0.9-3-1.4-4.6-1.5-4.7c-1-1.7-2.6-2.5-5-2.5c-2.5,0-4.8,0.9-7,2.7c-1.2,0.9-2.9,2.8-5.2,5.6v29.6h12c2.6,0,3.9,1,3.9,3
		c0,2.2-1.3,3.3-3.9,3.3h-28.1c-2.6,0-3.9-1-3.9-3.1c0-2.1,1.3-3.2,3.9-3.2H542.2z"/>
	<path fill="#FFFFFF" d="M584.2,114.6V96.4c0-11.1,7.4-16.7,22.3-16.7c14.8,0,22.2,5.6,22.2,16.7v18.2c0,11.1-7.3,16.7-21.9,16.7
		C591.7,131.3,584.2,125.7,584.2,114.6z M622.3,114.6V96.4c0-6.9-5.4-10.4-16.2-10.4c-10.3,0-15.5,3.5-15.5,10.4v18.2
		c0,6.9,5.3,10.4,16,10.3C617.1,124.9,622.3,121.5,622.3,114.6z"/>
	<path fill="#FFFFFF" d="M649.1,87h-7c-2.5,0-3.8-1.1-3.8-3.2c0-2.1,1.3-3.1,3.8-3.1h7v-6.2c0-10.7,5.5-16.1,16.5-16.1
		c4.4,0,8.1,0.8,11.1,2.4c3.7,2.3,5.6,5.6,5.6,9.8c0,2.8-1.1,4.2-3.3,4.2c-1.5,0-2.6-0.8-3.4-2.5c-0.9-2.8-1.7-4.5-2.4-5.1
		c-1.3-1.6-3.9-2.5-7.7-2.5c-6.7,0-10,3.3-10,9.9v6h13c2.8,0,4.2,1.1,4.2,3.2c0,2.1-1.4,3.2-4.2,3.2h-13v40.5c0,2.5-1.1,3.8-3.3,3.8
		c-2.1,0-3.2-1.3-3.2-3.8V87z"/>
	<path fill="#FFFFFF" d="M703.3,123.9V87h-10.7c-3.2,0-4.8-1.1-4.8-3.3c0-2,1.6-3,4.8-3h12.7c3,0,4.4,1.4,4.4,4.1v39.2h12.1
		c3,0,4.5,1.1,4.5,3.2c0,2.1-1.4,3.1-4.1,3.1h-33.5c-2.8,0-4.2-1-4.2-3.1c0-2.1,1.4-3.2,4.2-3.2H703.3z M705.1,58.4
		c1.6,0,3,0.6,4.2,1.8c1.2,1.2,1.7,2.6,1.7,4.3c0,1.7-0.6,3.1-1.8,4.3c-1.2,1.2-2.6,1.8-4.3,1.8c-1.7,0-3.2-0.6-4.3-1.8
		c-1.2-1.2-1.8-2.6-1.8-4.3c0-1.7,0.6-3.2,1.8-4.3C701.9,59,703.4,58.4,705.1,58.4z"/>
	<path fill="#FFFFFF" d="M737.7,87h-9.1c-2.4,0-3.6-1.1-3.6-3.2c0-2.1,1.2-3.2,3.6-3.2h9.1V63.4c0-3.3,1.1-5,3.2-5
		c2.1,0,3.2,1.7,3.2,5v17.3h17c2.4,0,3.7,1,3.7,3.1c0,2.2-1.2,3.3-3.7,3.3h-17v28.3c0,6.4,3,9.6,9,9.6c3.2,0,6.2-1,9.1-2.9
		c2.9-1.9,4.6-2.9,5.1-2.9c1.9,0,2.9,0.9,2.9,2.8c0,2.3-2.4,4.6-7.2,7.1c-3.3,1.5-6.8,2.2-10.6,2.2c-9.8,0-14.7-5.3-14.7-15.9V87z"
		/>
</g>
<g>
</g>
<g>
</g>
<g>
</g>
<g>
</g>
<g>
</g>
<g>
</g>
<g>
</g>
<g>
</g>
<g>
</g>
<g>
</g>
<g>
</g>
<g>
</g>
<g>
</g>
<g>
</g>
<g>
</g>
</svg>
