<?xml version="1.0" encoding="utf-8"?>
<!-- Generator: Adobe Illustrator 18.0.0, SVG Export Plug-In . SVG Version: 6.00 Build 0)  -->
<!DOCTYPE svg PUBLIC "-//W3C//DTD SVG 1.1//EN" "http://www.w3.org/Graphics/SVG/1.1/DTD/svg11.dtd">
<svg version="1.1"
	 id="Layer_1" xmlns:inkscape="http://www.inkscape.org/namespaces/inkscape" xmlns:svg="http://www.w3.org/2000/svg" xmlns:rdf="http://www.w3.org/1999/02/22-rdf-syntax-ns#" xmlns:cc="http://creativecommons.org/ns#" xmlns:dc="http://purl.org/dc/elements/1.1/" xmlns:sodipodi="http://sodipodi.sourceforge.net/DTD/sodipodi-0.dtd" inkscape:export-ydpi="90" inkscape:export-filename="C:\Users\anon\Desktop\vimeoFCC.png" inkscape:version="0.48.5 r10040" sodipodi:docname="FB_CoverFCC.svg" inkscape:export-xdpi="90"
	 xmlns="http://www.w3.org/2000/svg" xmlns:xlink="http://www.w3.org/1999/xlink" x="0px" y="0px"
	 viewBox="-19.8 -87.6 598.5 467.3" enable-background="new -19.8 -87.6 598.5 467.3" xml:space="preserve">
<rect x="-19.8" y="-87.6" fill="#4C4C4C" width="599.6" height="467.3"/>
<rect x="314.7" y="-69.9" fill="#492C14" width="89.9" height="25.2"/>
<rect x="-2" y="-9" fill="#492C14" width="406.4" height="80.1"/>
<sodipodi:namedview  id="namedview43" borderlayer="true" borderopacity="1" pagecolor="#ffffff" inkscape:cy="508.0019" bordercolor="#666666" objecttolerance="10" showgrid="false" inkscape:zoom="0.35355339" inkscape:cx="434.50215" guidetolerance="10" gridtolerance="10" inkscape:current-layer="Layer_1" inkscape:showpageshadow="false" inkscape:window-y="-4" inkscape:window-maximized="1" inkscape:window-x="-4" inkscape:pageshadow="2" inkscape:pageopacity="0" inkscape:window-width="1366" inkscape:window-height="705">
	</sodipodi:namedview>
<path id="path5" inkscape:export-ydpi="90" inkscape:export-filename="C:\Users\anon\Desktop\logo4.0.png" inkscape:connector-curvature="0" inkscape:export-xdpi="90" fill="#FFFFFF" d="
	M23,27.1h-3.2c-1.1,0-1.7-0.5-1.7-1.4c0-1,0.6-1.4,1.7-1.4H23v-2.8c0-4.9,2.5-7.3,7.4-7.3c2,0,3.7,0.4,5,1.1c1.7,1,2.6,2.6,2.6,4.5
	c0,1.3-0.5,1.8-1.4,1.8c-0.6,0-1.2-0.4-1.5-1.1c-0.4-1.3-0.8-2-1-2.3c-0.6-0.7-1.8-1.1-3.5-1.1c-3,0-4.5,1.5-4.5,4.5v2.7h5.8
	c1.3,0,1.9,0.5,1.9,1.4c0,1-0.6,1.4-1.9,1.4h-5.8v18.3c0,1.1-0.5,1.7-1.4,1.7c-1,0-1.4-0.6-1.4-1.7V27.1H23z"/>
<path id="path7" inkscape:export-ydpi="90" inkscape:export-filename="C:\Users\anon\Desktop\logo4.0.png" inkscape:connector-curvature="0" inkscape:export-xdpi="90" fill="#FFFFFF" d="
	M49,43.8V27.1h-4.3c-1.2,0-1.8-0.5-1.8-1.4c0-1,0.6-1.4,1.8-1.4h5.8c1,0,1.5,0.9,1.5,2.5c1.8-1.9,3.7-3,5.7-3c1.7,0,3,0.5,3.9,1.5
	c1,1,1.4,2.4,1.4,4c0,1.1-0.5,1.7-1.4,1.7c-0.6,0-1-0.4-1.2-1.1c-0.4-1.4-0.6-2.1-0.7-2.2c-0.4-0.7-1.2-1.1-2.2-1.1
	c-1.1,0-2.2,0.4-3.1,1.2c-0.6,0.4-1.4,1.3-2.4,2.6v13.4h5.4c1.2,0,1.8,0.5,1.8,1.4c0,1-0.6,1.5-1.8,1.5H44.6c-1.2,0-1.8-0.5-1.8-1.4
	c0-1,0.6-1.4,1.8-1.4H49L49,43.8z"/>
<path id="path9" inkscape:export-ydpi="90" inkscape:export-filename="C:\Users\anon\Desktop\logo4.0.png" inkscape:connector-curvature="0" inkscape:export-xdpi="90" fill="#FFFFFF" d="
	M70.9,35.9v3.2c0,3.4,2.4,5.1,7.3,5.1c1.8,0,3.2-0.2,4.3-0.6c0.6-0.2,1.6-0.7,3-1.7c0.9-0.8,1.5-1.2,1.8-1.2c0.8,0,1.2,0.4,1.2,1.3
	c0,0.9-0.6,1.8-1.8,2.7c-1.9,1.5-4.8,2.3-8.6,2.3c-6.7,0-10.1-2.6-10.1-7.9v-8c0-1.8,0.7-3.4,2.1-4.7c1.8-1.8,4.6-2.6,8.2-2.6
	c6.6,0,9.8,3.3,9.8,9.8c0,1.6-0.6,2.4-1.8,2.4H70.9L70.9,35.9z M70.9,33.1h14.3c0-4.3-2.4-6.5-7.3-6.5c-1.8,0-3.4,0.4-4.8,1.2
	c-1.4,1-2.2,2.2-2.2,3.6V33.1z"/>
<path id="path11" inkscape:export-ydpi="90" inkscape:export-filename="C:\Users\anon\Desktop\logo4.0.png" inkscape:connector-curvature="0" inkscape:export-xdpi="90" fill="#FFFFFF" d="
	M96,35.9v3.2c0,3.4,2.4,5.1,7.3,5.1c1.8,0,3.2-0.2,4.3-0.6c0.6-0.2,1.6-0.7,3-1.7c0.9-0.8,1.5-1.2,1.8-1.2c0.8,0,1.2,0.4,1.2,1.3
	c0,0.9-0.6,1.8-1.8,2.7c-1.9,1.5-4.8,2.3-8.6,2.3c-6.7,0-10.1-2.6-10.1-7.9v-8c0-1.8,0.7-3.4,2.1-4.7c1.8-1.8,4.6-2.6,8.2-2.6
	c6.6,0,9.8,3.3,9.8,9.8c0,1.6-0.6,2.4-1.8,2.4H96L96,35.9z M96,33.1h14.3c0-4.3-2.4-6.5-7.3-6.5c-1.8,0-3.4,0.4-4.8,1.2
	c-1.5,1-2.2,2.2-2.2,3.6V33.1z"/>
<path id="path13" inkscape:export-ydpi="90" inkscape:export-filename="C:\Users\anon\Desktop\logo4.0.png" inkscape:connector-curvature="0" inkscape:export-xdpi="90" fill="#FFFFFF" d="
	M118.5,37.8V25.3c0-6.6,3.4-9.8,10.4-9.8c2.8,0,5,0.6,6.8,1.8c2,1.5,3,3.6,3,6.2c0,1.2-0.5,1.8-1.5,1.8c-0.7,0-1.2-0.6-1.5-1.8
	c-0.2-1-0.6-1.9-1.1-2.8c-0.9-1.6-2.8-2.3-5.8-2.3c-2.6,0-4.4,0.6-5.5,1.9c-1,1.2-1.6,3-1.6,5.7v10.4c0,2.7,0.6,4.6,1.7,5.8
	c1.2,1.3,3,2,5.6,2c3.9,0,6.2-1.4,6.7-4.1c0.2-1,0.3-1.5,0.3-1.6c0.2-0.6,0.6-0.9,1.2-0.9c1,0,1.5,0.6,1.5,1.8c0,2.5-1,4.4-3.1,5.9
	c-1.7,1.1-3.8,1.7-6.6,1.7c-3.2,0-5.7-0.7-7.5-2.2C119.4,43.3,118.5,40.9,118.5,37.8L118.5,37.8z"/>
<path id="path15" inkscape:export-ydpi="90" inkscape:export-filename="C:\Users\anon\Desktop\logo4.0.png" inkscape:connector-curvature="0" inkscape:export-xdpi="90" fill="#FFFFFF" d="
	M143.3,39.5v-8.2c0-5,3.4-7.5,10.1-7.5s10.1,2.5,10.1,7.5v8.2c0,5-3.3,7.5-9.9,7.5C146.6,47.1,143.3,44.6,143.3,39.5L143.3,39.5z
	 M160.5,39.5v-8.2c0-3.1-2.4-4.7-7.3-4.7c-4.6,0-7,1.6-7,4.7v8.2c0,3.1,2.4,4.7,7.2,4.6C158.1,44.2,160.5,42.7,160.5,39.5z"/>
<path id="path15_1_" inkscape:export-ydpi="90" inkscape:export-filename="C:\Users\anon\Desktop\logo4.0.png" inkscape:connector-curvature="0" inkscape:export-xdpi="90" opacity="0.17" fill="#FFFFFF" d="
	M118.5,8v-8.2c0-5,3.4-7.5,10.1-7.5s10.1,2.5,10.1,7.5V8c0,5-3.3,7.5-9.9,7.5C121.8,15.5,118.5,13.1,118.5,8L118.5,8z M135.7,8v-8.2
	c0-3.1-2.4-4.7-7.3-4.7c-4.6,0-7,1.6-7,4.7V8c0,3.1,2.4,4.7,7.2,4.6C133.3,12.7,135.7,11.1,135.7,8z"/>
<path id="path15_2_" inkscape:export-ydpi="90" inkscape:export-filename="C:\Users\anon\Desktop\logo4.0.png" inkscape:connector-curvature="0" inkscape:export-xdpi="90" opacity="0.17" fill="#FFFFFF" d="
	M118.5,63.6v-8.2c0-5,3.4-7.5,10.1-7.5s10.1,2.5,10.1,7.5v8.2c0,5-3.3,7.5-9.9,7.5C121.8,71.1,118.5,68.6,118.5,63.6L118.5,63.6z
	 M135.7,63.6v-8.2c0-3.1-2.4-4.7-7.3-4.7c-4.6,0-7,1.6-7,4.7v8.2c0,3.1,2.4,4.7,7.2,4.6C133.3,68.2,135.7,66.7,135.7,63.6z"/>
<path id="path15_3_" inkscape:export-ydpi="90" inkscape:export-filename="C:\Users\anon\Desktop\logo4.0.png" inkscape:connector-curvature="0" inkscape:export-xdpi="90" opacity="0.17" fill="#FFFFFF" d="
	M-2,32.5v-8.2c0-5,3.4-7.5,10.1-7.5s10.1,2.5,10.1,7.5v8.2c0,5-3.3,7.5-9.9,7.5C1.4,40-2,37.5-2,32.5L-2,32.5z M15.2,32.5v-8.2
	c0-3.1-2.4-4.7-7.3-4.7c-4.6,0-7,1.6-7,4.7v8.2c0,3.1,2.4,4.7,7.2,4.6C12.9,37.1,15.2,35.6,15.2,32.5z"/>
<path id="path15_4_" inkscape:export-ydpi="90" inkscape:export-filename="C:\Users\anon\Desktop\logo4.0.png" inkscape:connector-curvature="0" inkscape:export-xdpi="90" opacity="0.17" fill="#FFFFFF" d="
	M384.3,38.3v-8.2c0-5,3.4-7.5,10.1-7.5c6.7,0,10.1,2.5,10.1,7.5v8.2c0,5-3.3,7.5-9.9,7.5C387.6,45.9,384.3,43.4,384.3,38.3
	L384.3,38.3z M401.5,38.3v-8.2c0-3.1-2.4-4.7-7.3-4.7c-4.6,0-7,1.6-7,4.7v8.2c0,3.1,2.4,4.7,7.2,4.6C399.1,43,401.5,41.5,401.5,38.3
	z"/>
<path id="path17" inkscape:export-ydpi="90" inkscape:export-filename="C:\Users\anon\Desktop\logo4.0.png" inkscape:connector-curvature="0" inkscape:export-xdpi="90" fill="#FFFFFF" d="
	M185.4,44.3c-1.4,1-2.6,1.7-3.6,2.1c-1.1,0.4-2.5,0.6-4.1,0.6c-2.7,0-4.9-0.6-6.6-1.7c-1.9-1.3-2.9-3.2-2.9-5.8v-8.4
	c0-2.5,1-4.4,2.8-5.7c1.6-1.1,3.8-1.7,6.3-1.7c1.7,0,3.1,0.2,4.2,0.6c1.1,0.4,2.3,1.1,3.6,2.2V16.2c0-1.4,0.5-2.1,1.4-2.1
	c1,0,1.5,0.7,1.5,2.1v29.4c0,1-0.5,1.5-1.4,1.5c-0.6,0-1-0.3-1.1-1C185.5,45.6,185.4,45.1,185.4,44.3L185.4,44.3z M185.3,41V29.5
	c-1.4-1-2.6-1.8-3.4-2.1c-1.2-0.5-2.5-0.7-3.9-0.7c-1.8,0-3.4,0.3-4.5,1c-1.4,0.9-2.2,2.2-2.2,3.8v7.9c0,1.7,0.7,3,2.2,3.8
	c1.2,0.6,2.7,1,4.6,1c1.5,0,2.9-0.2,4-0.7C183,42.9,184.1,42.1,185.3,41L185.3,41z"/>
<path id="path19" inkscape:export-ydpi="90" inkscape:export-filename="C:\Users\anon\Desktop\logo4.0.png" inkscape:connector-curvature="0" inkscape:export-xdpi="90" fill="#FFFFFF" d="
	M196.3,35.9v3.2c0,3.4,2.4,5.1,7.3,5.1c1.8,0,3.2-0.2,4.3-0.6c0.6-0.2,1.6-0.7,3-1.7c0.9-0.8,1.5-1.2,1.8-1.2c0.8,0,1.2,0.4,1.2,1.3
	c0,0.9-0.6,1.8-1.8,2.7c-1.9,1.5-4.8,2.3-8.6,2.3c-6.7,0-10.1-2.6-10.1-7.9v-8c0-1.8,0.7-3.4,2.1-4.7c1.8-1.8,4.6-2.6,8.2-2.6
	c6.6,0,9.8,3.3,9.8,9.8c0,1.6-0.6,2.4-1.8,2.4h-15.4V35.9z M196.3,33.1h14.3c0-4.3-2.4-6.5-7.3-6.5c-1.8,0-3.4,0.4-4.8,1.2
	c-1.5,1-2.2,2.2-2.2,3.6V33.1z"/>
<path id="path21" inkscape:export-ydpi="90" inkscape:export-filename="C:\Users\anon\Desktop\logo4.0.png" inkscape:connector-curvature="0" inkscape:export-xdpi="90" fill="#FFFFFF" d="
	M218.8,37.8V25.3c0-6.6,3.4-9.8,10.4-9.8c2.8,0,5,0.6,6.8,1.8c2,1.5,3,3.6,3,6.2c0,1.2-0.5,1.8-1.5,1.8c-0.7,0-1.2-0.6-1.5-1.8
	c-0.2-1-0.6-1.9-1.1-2.8c-0.9-1.6-2.8-2.3-5.8-2.3c-2.6,0-4.4,0.6-5.5,1.9c-1,1.2-1.6,3-1.6,5.7v10.4c0,2.7,0.6,4.6,1.7,5.8
	c1.2,1.3,3,2,5.6,2c3.9,0,6.2-1.4,6.7-4.1c0.2-1,0.3-1.5,0.3-1.6c0.2-0.6,0.6-0.9,1.2-0.9c1,0,1.5,0.6,1.5,1.8c0,2.5-1,4.4-3.1,5.9
	c-1.7,1.1-3.8,1.7-6.6,1.7c-3.2,0-5.7-0.7-7.5-2.2C219.8,43.3,218.8,40.9,218.8,37.8L218.8,37.8z"/>
<path id="path23" inkscape:export-ydpi="90" inkscape:export-filename="C:\Users\anon\Desktop\logo4.0.png" inkscape:connector-curvature="0" inkscape:export-xdpi="90" fill="#FFFFFF" d="
	M259.7,44.3c-1.4,1-2.6,1.8-3.4,2.1c-1,0.4-2.3,0.6-3.9,0.6c-2.4,0-4.4-0.5-5.9-1.5c-1.8-1.2-2.7-3-2.7-5.3c0-2.3,1-4.2,2.8-5.4
	c1.6-1.2,3.7-1.8,6.1-1.8c2,0,4.2,0.5,6.8,1.4v-3.5c0-1.7-0.8-2.9-2.4-3.6c-1.1-0.5-2.5-0.7-4.1-0.7c-3.8,0-5.8,1-6.2,3.1
	c-0.2,1-0.3,1.4-0.3,1.5c-0.2,0.5-0.6,0.7-1.2,0.7c-1,0-1.6-0.6-1.6-1.7c0-1.5,0.6-2.9,1.8-4.2c1.4-1.6,4.1-2.4,7.8-2.4
	c3,0,5.1,0.5,6.6,1.4c1.7,1.2,2.6,3.2,2.6,6v10.2c0,1.2,0.2,2,0.7,2.4c0.1,0.1,0.6,0.3,1.4,0.6c0.5,0.2,0.7,0.6,0.7,1.4
	c0,0.8-0.4,1.2-1.3,1.2c-0.2,0-0.6-0.1-1.3-0.3c-1.1-0.4-1.8-0.6-2-0.7C260.2,45.7,259.9,45.1,259.7,44.3L259.7,44.3z M259.6,41.3
	v-4.2c-2.2-0.7-4.4-1.1-6.3-1.1c-4.3,0-6.5,1.4-6.5,4.2c0,1.4,0.6,2.6,1.9,3.2c1,0.6,2.3,0.9,3.9,0.9c1.4,0,2.6-0.2,3.8-0.8
	C257.2,43.1,258.3,42.3,259.6,41.3L259.6,41.3z"/>
<path id="path25" inkscape:export-ydpi="90" inkscape:export-filename="C:\Users\anon\Desktop\logo4.0.png" inkscape:connector-curvature="0" inkscape:export-xdpi="90" fill="#FFFFFF" d="
	M270.9,26.2c0.7-0.9,1.4-1.5,1.8-1.8c0.6-0.4,1.4-0.6,2.5-0.6c1.6,0,3,0.8,4.2,2.5c0.8-1,1.5-1.6,2.2-1.9c0.7-0.4,1.7-0.6,2.8-0.6
	c3.4,0,5.2,1.7,5.2,5v16.2c0,1.4-0.5,2-1.5,2c-1,0-1.4-0.6-1.4-2V29.8c0-2.1-0.9-3.2-2.6-3.2c-1.3,0-2.6,0.8-3.7,2.3v16.2
	c0,1.4-0.5,2-1.4,2s-1.4-0.6-1.4-2v-15c0-2.3-1-3.4-2.8-3.4c-1.2,0-2.3,0.8-3.5,2.3v16.1c0,1.4-0.5,2-1.5,2c-1,0-1.4-0.6-1.4-2V25.2
	c0-1,0.4-1.4,1.2-1.4c0.4,0,0.8,0.3,1,0.9C270.8,25.1,270.9,25.6,270.9,26.2L270.9,26.2z"/>
<path id="path27" inkscape:export-ydpi="90" inkscape:export-filename="C:\Users\anon\Desktop\logo4.0.png" inkscape:connector-curvature="0" inkscape:export-xdpi="90" fill="#FFFFFF" d="
	M296.9,26.2c2.2-1.6,4.9-2.4,7.8-2.4c6.1,0,9.1,2.6,9.1,7.6v8.3c0,2.4-0.9,4.2-2.6,5.6c-1.5,1.2-3.6,1.8-6.2,1.8
	c-3.1,0-5.8-0.8-8.1-2.5v9.4c0,1.4-0.5,2.2-1.4,2.2s-1.4-0.7-1.4-2.2V25.9c0-1.4,0.4-2.2,1.2-2.2c0.4,0,0.8,0.3,1.1,0.9
	C296.5,25.1,296.8,25.7,296.9,26.2L296.9,26.2z M296.9,41.4c2.1,1.8,4.6,2.8,7.6,2.8c1.8,0,3.3-0.3,4.4-1c1.4-0.8,2-2,2-3.5v-8.3
	c0-1.8-0.7-3-2.2-3.8c-1.1-0.6-2.6-0.9-4.5-0.9c-1.7,0-3,0.2-4.1,0.7c-1,0.4-2,1.3-3.3,2.6V41.4L296.9,41.4z"/>
<path id="path29" inkscape:export-ydpi="90" inkscape:export-filename="C:\Users\anon\Desktop\logo4.0.png" inkscape:connector-curvature="0" inkscape:export-xdpi="90" fill="#FFFFFF" d="
	M323.7,33.5c0-6.3,2.2-11.9,6.6-16.9c1.6-1.8,2.9-2.7,3.8-2.7c0.3,0,0.6,0.1,0.9,0.3c0.2,0.2,0.4,0.5,0.4,0.8c0,0.5-0.6,1.2-1.7,2.3
	c-4.6,4.4-6.9,9.8-6.9,16.3c0,7.2,2.4,13,7.1,17.5c1,0.9,1.4,1.6,1.4,2.2c0,0.3-0.2,0.6-0.4,0.9c-0.2,0.2-0.6,0.4-0.9,0.4
	c-1.1,0-2.6-1.3-4.6-3.8C325.5,46,323.7,40.3,323.7,33.5L323.7,33.5z"/>
<path id="path31" inkscape:export-ydpi="90" inkscape:export-filename="C:\Users\anon\Desktop\logo4.0.png" inkscape:connector-curvature="0" inkscape:export-xdpi="90" fill="#FFFFFF" d="
	M384.3,35.1c0,6.3-2.2,11.9-6.6,16.9c-1.6,1.8-2.9,2.7-3.8,2.7c-0.3,0-0.6-0.1-0.9-0.3c-0.2-0.2-0.4-0.6-0.4-0.9
	c0-0.5,0.6-1.2,1.7-2.2c4.6-4.4,6.9-9.8,6.9-16.3c0-7.2-2.4-13-7.1-17.5c-1-0.9-1.4-1.6-1.4-2.2c0-0.3,0.2-0.6,0.4-0.9
	c0.2-0.2,0.6-0.4,0.9-0.4c1,0,2.6,1.3,4.6,3.8C382.3,22.6,384.3,28.3,384.3,35.1L384.3,35.1z"/>
<g id="g33" transform="matrix(2.5023894,0,0,2.5023894,10.019816,292.82522)" inkscape:export-ydpi="90" inkscape:export-filename="C:\Users\anon\Desktop\logo4.0.png" inkscape:export-xdpi="90">
	<path id="path37" inkscape:connector-curvature="0" fill="#FFFFFF" d="M143-95.7h-11.1c-0.4,0-0.7-0.3-0.7-0.7s0.3-0.7,0.7-0.7H143
		c0.4,0,0.7,0.3,0.7,0.7C143.6-96,143.4-95.7,143-95.7z"/>
</g>
<path fill="#FFFFFF" d="M348.1,17.3c0,0,2.3,1.6,2.3,4.5c0,5-6.8,10.5-6.8,15.7c0,5.6,4.3,9.2,8.4,10.3c0.6,0.1,0.8-0.5,0.1-0.7
	c-1.7-0.4-3.5-2.6-3.5-6c0-3.2,3.1-4.4,4.3-5.9c1.3-1.6,1-3.6,0.2-4.2s-0.2-1.4,1.1-0.4c1.3,0.9,2.4,2.7,2,4.3
	c-0.5,2.1,0.2,3.3,1.3,3.5s2.3-0.4,2.2-1.4s-0.7-2.1-0.4-2.1c0.8,0,2.4,1.9,2.4,5c0,3.1-2.5,5.2-3.3,6c-0.5,0.5,0.1,1.1,0.8,0.8
	c0.3-0.1,1-0.5,1.4-0.8c2-1.4,5.1-4.3,5.1-9.6c0-5.6-2.1-8.1-4.3-10.2s-2.7-1.6-2.1-0.5c1.8,3.1,0.7,4.2-0.6,4.2
	c-1.6,0-1.6-3.5-2.3-6.2c-1.3-6-6.8-7-7.8-7.1S346.9,16.8,348.1,17.3z"/>
<rect x="-2" y="96" fill="#492C14" width="406.4" height="80.1"/>
<path id="path5_1_" inkscape:export-ydpi="90" inkscape:export-filename="C:\Users\anon\Desktop\logo4.0.png" inkscape:connector-curvature="0" inkscape:export-xdpi="90" fill="#FFFFFF" d="
	M23,132h-3.2c-1.1,0-1.7-0.5-1.7-1.4s0.6-1.4,1.7-1.4H23v-2.8c0-4.9,2.5-7.3,7.4-7.3c2,0,3.7,0.4,5,1.1c1.7,1,2.6,2.6,2.6,4.5
	c0,1.3-0.5,1.8-1.4,1.8c-0.6,0-1.2-0.4-1.5-1.1c-0.4-1.3-0.8-2-1-2.3c-0.6-0.7-1.8-1.1-3.5-1.1c-3,0-4.5,1.5-4.5,4.5v2.7h5.8
	c1.3,0,1.9,0.5,1.9,1.4c0,1-0.6,1.4-1.9,1.4h-5.8v18.3c0,1.1-0.5,1.7-1.4,1.7c-1,0-1.4-0.6-1.4-1.7V132H23z"/>
<path id="path7_1_" inkscape:export-ydpi="90" inkscape:export-filename="C:\Users\anon\Desktop\logo4.0.png" inkscape:connector-curvature="0" inkscape:export-xdpi="90" fill="#FFFFFF" d="
	M49,148.7V132h-4.3c-1.2,0-1.8-0.5-1.8-1.4s0.6-1.4,1.8-1.4h5.8c1,0,1.5,0.9,1.5,2.5c1.8-1.9,3.7-3,5.7-3c1.7,0,3,0.5,3.9,1.5
	c1,1,1.4,2.4,1.4,4c0,1.1-0.5,1.7-1.4,1.7c-0.6,0-1-0.4-1.2-1.1c-0.4-1.4-0.6-2.1-0.7-2.2c-0.4-0.7-1.2-1.1-2.2-1.1
	c-1.1,0-2.2,0.4-3.1,1.2c-0.6,0.4-1.4,1.3-2.4,2.6v13.4h5.4c1.2,0,1.8,0.5,1.8,1.4c0,1-0.6,1.5-1.8,1.5H44.6c-1.2,0-1.8-0.5-1.8-1.4
	c0-1,0.6-1.4,1.8-1.4H49L49,148.7z"/>
<path id="path9_1_" inkscape:export-ydpi="90" inkscape:export-filename="C:\Users\anon\Desktop\logo4.0.png" inkscape:connector-curvature="0" inkscape:export-xdpi="90" fill="#FFFFFF" d="
	M70.9,140.9v3.2c0,3.4,2.4,5.1,7.3,5.1c1.8,0,3.2-0.2,4.3-0.6c0.6-0.2,1.6-0.7,3-1.7c0.9-0.8,1.5-1.2,1.8-1.2c0.8,0,1.2,0.4,1.2,1.3
	c0,0.9-0.6,1.8-1.8,2.7c-1.9,1.5-4.8,2.3-8.6,2.3c-6.7,0-10.1-2.6-10.1-7.9v-8c0-1.8,0.7-3.4,2.1-4.7c1.8-1.8,4.6-2.6,8.2-2.6
	c6.6,0,9.8,3.3,9.8,9.8c0,1.6-0.6,2.4-1.8,2.4H70.9L70.9,140.9z M70.9,138h14.3c0-4.3-2.4-6.5-7.3-6.5c-1.8,0-3.4,0.4-4.8,1.2
	c-1.4,1-2.2,2.2-2.2,3.6V138z"/>
<path id="path11_1_" inkscape:export-ydpi="90" inkscape:export-filename="C:\Users\anon\Desktop\logo4.0.png" inkscape:connector-curvature="0" inkscape:export-xdpi="90" fill="#FFFFFF" d="
	M96,140.9v3.2c0,3.4,2.4,5.1,7.3,5.1c1.8,0,3.2-0.2,4.3-0.6c0.6-0.2,1.6-0.7,3-1.7c0.9-0.8,1.5-1.2,1.8-1.2c0.8,0,1.2,0.4,1.2,1.3
	c0,0.9-0.6,1.8-1.8,2.7c-1.9,1.5-4.8,2.3-8.6,2.3c-6.7,0-10.1-2.6-10.1-7.9v-8c0-1.8,0.7-3.4,2.1-4.7c1.8-1.8,4.6-2.6,8.2-2.6
	c6.6,0,9.8,3.3,9.8,9.8c0,1.6-0.6,2.4-1.8,2.4H96L96,140.9z M96,138h14.3c0-4.3-2.4-6.5-7.3-6.5c-1.8,0-3.4,0.4-4.8,1.2
	c-1.5,1-2.2,2.2-2.2,3.6V138z"/>
<path id="path13_1_" inkscape:export-ydpi="90" inkscape:export-filename="C:\Users\anon\Desktop\logo4.0.png" inkscape:connector-curvature="0" inkscape:export-xdpi="90" fill="#FFFFFF" d="
	M118.5,142.7v-12.5c0-6.6,3.4-9.8,10.4-9.8c2.8,0,5,0.6,6.8,1.8c2,1.5,3,3.6,3,6.2c0,1.2-0.5,1.8-1.5,1.8c-0.7,0-1.2-0.6-1.5-1.8
	c-0.2-1-0.6-1.9-1.1-2.8c-0.9-1.6-2.8-2.3-5.8-2.3c-2.6,0-4.4,0.6-5.5,1.9c-1,1.2-1.6,3-1.6,5.7v10.4c0,2.7,0.6,4.6,1.7,5.8
	c1.2,1.3,3,2,5.6,2c3.9,0,6.2-1.4,6.7-4.1c0.2-1,0.3-1.5,0.3-1.6c0.2-0.6,0.6-0.9,1.2-0.9c1,0,1.5,0.6,1.5,1.8c0,2.5-1,4.4-3.1,5.9
	c-1.7,1.1-3.8,1.7-6.6,1.7c-3.2,0-5.7-0.7-7.5-2.2C119.4,148.3,118.5,145.9,118.5,142.7L118.5,142.7z"/>
<path id="path15_9_" inkscape:export-ydpi="90" inkscape:export-filename="C:\Users\anon\Desktop\logo4.0.png" inkscape:connector-curvature="0" inkscape:export-xdpi="90" fill="#FFFFFF" d="
	M143.3,144.5v-8.2c0-5,3.4-7.5,10.1-7.5s10.1,2.5,10.1,7.5v8.2c0,5-3.3,7.5-9.9,7.5C146.6,152,143.3,149.5,143.3,144.5L143.3,144.5z
	 M160.5,144.5v-8.2c0-3.1-2.4-4.7-7.3-4.7c-4.6,0-7,1.6-7,4.7v8.2c0,3.1,2.4,4.7,7.2,4.6C158.1,149.1,160.5,147.6,160.5,144.5z"/>
<path id="path17_1_" inkscape:export-ydpi="90" inkscape:export-filename="C:\Users\anon\Desktop\logo4.0.png" inkscape:connector-curvature="0" inkscape:export-xdpi="90" fill="#FFFFFF" d="
	M185.4,149.3c-1.4,1-2.6,1.7-3.6,2.1c-1.1,0.4-2.5,0.6-4.1,0.6c-2.7,0-4.9-0.6-6.6-1.7c-1.9-1.3-2.9-3.2-2.9-5.8v-8.4
	c0-2.5,1-4.4,2.8-5.7c1.6-1.1,3.8-1.7,6.3-1.7c1.7,0,3.1,0.2,4.2,0.6c1.1,0.4,2.3,1.1,3.6,2.2v-10.3c0-1.4,0.5-2.1,1.4-2.1
	c1,0,1.5,0.7,1.5,2.1v29.4c0,1-0.5,1.5-1.4,1.5c-0.6,0-1-0.3-1.1-1C185.5,150.6,185.4,150,185.4,149.3L185.4,149.3z M185.3,145.9
	v-11.5c-1.4-1-2.6-1.8-3.4-2.1c-1.2-0.5-2.5-0.7-3.9-0.7c-1.8,0-3.4,0.3-4.5,1c-1.4,0.9-2.2,2.2-2.2,3.8v7.9c0,1.7,0.7,3,2.2,3.8
	c1.2,0.6,2.7,1,4.6,1c1.5,0,2.9-0.2,4-0.7C183,147.9,184.1,147.1,185.3,145.9L185.3,145.9z"/>
<path id="path19_1_" inkscape:export-ydpi="90" inkscape:export-filename="C:\Users\anon\Desktop\logo4.0.png" inkscape:connector-curvature="0" inkscape:export-xdpi="90" fill="#FFFFFF" d="
	M196.3,140.9v3.2c0,3.4,2.4,5.1,7.3,5.1c1.8,0,3.2-0.2,4.3-0.6c0.6-0.2,1.6-0.7,3-1.7c0.9-0.8,1.5-1.2,1.8-1.2
	c0.8,0,1.2,0.4,1.2,1.3c0,0.9-0.6,1.8-1.8,2.7c-1.9,1.5-4.8,2.3-8.6,2.3c-6.7,0-10.1-2.6-10.1-7.9v-8c0-1.8,0.7-3.4,2.1-4.7
	c1.8-1.8,4.6-2.6,8.2-2.6c6.6,0,9.8,3.3,9.8,9.8c0,1.6-0.6,2.4-1.8,2.4h-15.4V140.9z M196.3,138h14.3c0-4.3-2.4-6.5-7.3-6.5
	c-1.8,0-3.4,0.4-4.8,1.2c-1.5,1-2.2,2.2-2.2,3.6V138z"/>
<path id="path21_1_" inkscape:export-ydpi="90" inkscape:export-filename="C:\Users\anon\Desktop\logo4.0.png" inkscape:connector-curvature="0" inkscape:export-xdpi="90" fill="#FFFFFF" d="
	M218.8,142.7v-12.5c0-6.6,3.4-9.8,10.4-9.8c2.8,0,5,0.6,6.8,1.8c2,1.5,3,3.6,3,6.2c0,1.2-0.5,1.8-1.5,1.8c-0.7,0-1.2-0.6-1.5-1.8
	c-0.2-1-0.6-1.9-1.1-2.8c-0.9-1.6-2.8-2.3-5.8-2.3c-2.6,0-4.4,0.6-5.5,1.9c-1,1.2-1.6,3-1.6,5.7v10.4c0,2.7,0.6,4.6,1.7,5.8
	c1.2,1.3,3,2,5.6,2c3.9,0,6.2-1.4,6.7-4.1c0.2-1,0.3-1.5,0.3-1.6c0.2-0.6,0.6-0.9,1.2-0.9c1,0,1.5,0.6,1.5,1.8c0,2.5-1,4.4-3.1,5.9
	c-1.7,1.1-3.8,1.7-6.6,1.7c-3.2,0-5.7-0.7-7.5-2.2C219.8,148.3,218.8,145.9,218.8,142.7L218.8,142.7z"/>
<path id="path23_1_" inkscape:export-ydpi="90" inkscape:export-filename="C:\Users\anon\Desktop\logo4.0.png" inkscape:connector-curvature="0" inkscape:export-xdpi="90" fill="#FFFFFF" d="
	M259.7,149.3c-1.4,1-2.6,1.8-3.4,2.1c-1,0.4-2.3,0.6-3.9,0.6c-2.4,0-4.4-0.5-5.9-1.5c-1.8-1.2-2.7-3-2.7-5.3c0-2.3,1-4.2,2.8-5.4
	c1.6-1.2,3.7-1.8,6.1-1.8c2,0,4.2,0.5,6.8,1.4v-3.5c0-1.7-0.8-2.9-2.4-3.6c-1.1-0.5-2.5-0.7-4.1-0.7c-3.8,0-5.8,1-6.2,3.1
	c-0.2,1-0.3,1.4-0.3,1.5c-0.2,0.5-0.6,0.7-1.2,0.7c-1,0-1.6-0.6-1.6-1.7c0-1.5,0.6-2.9,1.8-4.2c1.4-1.6,4.1-2.4,7.8-2.4
	c3,0,5.1,0.5,6.6,1.4c1.7,1.2,2.6,3.2,2.6,6v10.2c0,1.2,0.2,2,0.7,2.4c0.1,0.1,0.6,0.3,1.4,0.6c0.5,0.2,0.7,0.6,0.7,1.4
	c0,0.8-0.4,1.2-1.3,1.2c-0.2,0-0.6-0.1-1.3-0.3c-1.1-0.4-1.8-0.6-2-0.7C260.2,150.7,259.9,150.1,259.7,149.3L259.7,149.3z
	 M259.6,146.3V142c-2.2-0.7-4.4-1.1-6.3-1.1c-4.3,0-6.5,1.4-6.5,4.2c0,1.4,0.6,2.6,1.9,3.2c1,0.6,2.3,0.9,3.9,0.9
	c1.4,0,2.6-0.2,3.8-0.8C257.2,148,258.3,147.3,259.6,146.3L259.6,146.3z"/>
<path id="path25_1_" inkscape:export-ydpi="90" inkscape:export-filename="C:\Users\anon\Desktop\logo4.0.png" inkscape:connector-curvature="0" inkscape:export-xdpi="90" fill="#FFFFFF" d="
	M270.9,131.1c0.7-0.9,1.4-1.5,1.8-1.8c0.6-0.4,1.4-0.6,2.5-0.6c1.6,0,3,0.8,4.2,2.5c0.8-1,1.5-1.6,2.2-1.9c0.7-0.4,1.7-0.6,2.8-0.6
	c3.4,0,5.2,1.7,5.2,5V150c0,1.4-0.5,2-1.5,2c-1,0-1.4-0.6-1.4-2v-15.3c0-2.1-0.9-3.2-2.6-3.2c-1.3,0-2.6,0.8-3.7,2.3V150
	c0,1.4-0.5,2-1.4,2s-1.4-0.6-1.4-2v-15c0-2.3-1-3.4-2.8-3.4c-1.2,0-2.3,0.8-3.5,2.3V150c0,1.4-0.5,2-1.5,2c-1,0-1.4-0.6-1.4-2v-19.8
	c0-1,0.4-1.4,1.2-1.4c0.4,0,0.8,0.3,1,0.9C270.8,130,270.9,130.6,270.9,131.1L270.9,131.1z"/>
<path id="path27_1_" inkscape:export-ydpi="90" inkscape:export-filename="C:\Users\anon\Desktop\logo4.0.png" inkscape:connector-curvature="0" inkscape:export-xdpi="90" fill="#FFFFFF" d="
	M296.9,131.1c2.2-1.6,4.9-2.4,7.8-2.4c6.1,0,9.1,2.6,9.1,7.6v8.3c0,2.4-0.9,4.2-2.6,5.6c-1.5,1.2-3.6,1.8-6.2,1.8
	c-3.1,0-5.8-0.8-8.1-2.5v9.4c0,1.4-0.5,2.2-1.4,2.2s-1.4-0.7-1.4-2.2v-28.2c0-1.4,0.4-2.2,1.2-2.2c0.4,0,0.8,0.3,1.1,0.9
	C296.5,130.1,296.8,130.7,296.9,131.1L296.9,131.1z M296.9,146.3c2.1,1.8,4.6,2.8,7.6,2.8c1.8,0,3.3-0.3,4.4-1c1.4-0.8,2-2,2-3.5
	v-8.3c0-1.8-0.7-3-2.2-3.8c-1.1-0.6-2.6-0.9-4.5-0.9c-1.7,0-3,0.2-4.1,0.7c-1,0.4-2,1.3-3.3,2.6V146.3L296.9,146.3z"/>
<path id="path29_1_" inkscape:export-ydpi="90" inkscape:export-filename="C:\Users\anon\Desktop\logo4.0.png" inkscape:connector-curvature="0" inkscape:export-xdpi="90" fill="#FFFFFF" d="
	M323.7,138.4c0-6.3,2.2-11.9,6.6-16.9c1.6-1.8,2.9-2.7,3.8-2.7c0.3,0,0.6,0.1,0.9,0.3c0.2,0.2,0.4,0.5,0.4,0.8
	c0,0.5-0.6,1.2-1.7,2.3c-4.6,4.4-6.9,9.8-6.9,16.3c0,7.2,2.4,13,7.1,17.5c1,0.9,1.4,1.6,1.4,2.2c0,0.3-0.2,0.6-0.4,0.9
	s-0.6,0.4-0.9,0.4c-1.1,0-2.6-1.3-4.6-3.8C325.5,151,323.7,145.2,323.7,138.4L323.7,138.4z"/>
<path id="path31_1_" inkscape:export-ydpi="90" inkscape:export-filename="C:\Users\anon\Desktop\logo4.0.png" inkscape:connector-curvature="0" inkscape:export-xdpi="90" fill="#FFFFFF" d="
	M384.3,140c0,6.3-2.2,11.9-6.6,16.9c-1.6,1.8-2.9,2.7-3.8,2.7c-0.3,0-0.6-0.1-0.9-0.3s-0.4-0.6-0.4-0.9c0-0.5,0.6-1.2,1.7-2.2
	c4.6-4.4,6.9-9.8,6.9-16.3c0-7.2-2.4-13-7.1-17.5c-1-0.9-1.4-1.6-1.4-2.2c0-0.3,0.2-0.6,0.4-0.9c0.2-0.2,0.6-0.4,0.9-0.4
	c1,0,2.6,1.3,4.6,3.8C382.3,127.5,384.3,133.3,384.3,140L384.3,140z"/>
<g id="g33_1_" transform="matrix(2.5023894,0,0,2.5023894,10.019816,292.82522)" inkscape:export-ydpi="90" inkscape:export-filename="C:\Users\anon\Desktop\logo4.0.png" inkscape:export-xdpi="90">
	<path id="path37_1_" inkscape:connector-curvature="0" fill="#FFFFFF" d="M143-53.8h-11.1c-0.4,0-0.7-0.3-0.7-0.7s0.3-0.7,0.7-0.7
		H143c0.4,0,0.7,0.3,0.7,0.7S143.4-53.8,143-53.8z"/>
</g>
<path fill="#FFFFFF" d="M348.1,122.3c0,0,2.3,1.6,2.3,4.5c0,5-6.8,10.5-6.8,15.7c0,5.6,4.3,9.2,8.4,10.3c0.6,0.1,0.8-0.5,0.1-0.7
	c-1.7-0.4-3.5-2.6-3.5-6c0-3.2,3.1-4.4,4.3-5.9c1.3-1.6,1-3.6,0.2-4.2c-0.7-0.6-0.2-1.4,1.1-0.4c1.3,0.9,2.4,2.7,2,4.3
	c-0.5,2.1,0.2,3.3,1.3,3.5s2.3-0.4,2.2-1.4c-0.1-1-0.7-2.1-0.4-2.1c0.8,0,2.4,1.9,2.4,5c0,3.1-2.5,5.2-3.3,6
	c-0.5,0.5,0.1,1.1,0.8,0.8c0.3-0.1,1-0.5,1.4-0.8c2-1.4,5.1-4.3,5.1-9.6c0-5.6-2.1-8.1-4.3-10.2s-2.7-1.6-2.1-0.5
	c1.8,3.1,0.7,4.2-0.6,4.2c-1.6,0-1.6-3.5-2.3-6.2c-1.3-6-6.8-7-7.8-7.1S346.9,121.7,348.1,122.3z"/>
<text transform="matrix(1 0 0 1 -2.1104 -52.6442)" fill="#FFFFFF" font-family="'MyriadPro-Regular'" font-size="12">Style Guide</text>
<text transform="matrix(1 0 0 1 -2.1104 209.42)" fill="#FFFFFF" font-family="'MyriadPro-Regular'" font-size="12">puck logo graphic for promotional use.  </text>
<text transform="matrix(1 0 0 1 232.3474 209.42)" fill="#FFFFFF" font-family="'MyriadPro-Regular'" font-size="12">for social network  “profile pic” or avatar, use square corner version.</text>
<text transform="matrix(1 0 0 1 -1.9655 -16.6023)" fill="#FFFFFF" font-family="'MyriadPro-Regular'" font-size="12">minimum of 1 “o” space around logo. </text>
<text transform="matrix(1 0 0 1 242.535 -53.8292)" fill="#FFFFFF" font-family="'MyriadPro-Regular'" font-size="12">FCC Brown: </text>
<text transform="matrix(1 0 0 1 351.0042 -53.8292)" fill="#FFFFFF" font-family="'MyriadPro-Regular'" font-size="12">#492c14</text>
<path fill="#492C14" d="M6.5,224.1h113c4.1,0,7.5,3.4,7.5,7.5v113c0,4.1-3.4,7.5-7.5,7.5H6.5c-4.1,0-7.5-3.4-7.5-7.5v-113
	C-1,227.4,2.4,224.1,6.5,224.1z"/>
<path fill="#392312" d="M127,290.1l-28-28l7.2,23.2l-3,16l-31-28.5l-2.2-1.5l-7.8-7.9l-2.6,7.9l-3.5,8.9l-23.8-23.8l-4.9,4.3
	L17.9,281c0,0,2.6,22.9,2.6,23.3S26,317,26,317l37,35.2l0.1,0.1h56.4c4.1,0,7.5-3.4,7.5-7.5V290.1z"/>
<path fill="#FFFFFF" d="M53.3,261c0,0,3.3,2.3,3.3,6.5c0,7.2-9.8,15.2-9.8,22.7c0,8.1,6.2,13.4,12.2,15c0.8,0.2,1.2-0.8,0.2-1
	c-2.4-0.6-5.1-3.8-5.1-8.8c0-4.6,4.4-6.3,6.2-8.6c1.8-2.3,1.4-5.2,0.3-6c-1.1-0.8-0.4-2,1.6-0.6c1.9,1.3,3.5,3.8,2.9,6.2
	c-0.7,3.1,0.2,4.8,1.8,5s3.4-0.6,3.2-2.1c-0.2-1.5-1.1-3-0.5-3c1.1,0,3.5,2.8,3.5,7.2c0,4.4-3.7,7.5-4.8,8.7
	c-0.7,0.7,0.2,1.6,1.1,1.2c0.5-0.2,1.4-0.8,2.1-1.2c2.9-2.1,7.4-6.2,7.4-14c0-8.1-3.1-11.7-6.2-14.7s-3.9-2.3-3-0.8
	c2.6,4.5,1,6-0.9,6c-2.2,0-2.4-5.1-3.3-9c-1.9-8.7-9.8-10.2-11.3-10.2C52.8,259.3,51.5,260.2,53.3,261z"/>
<path fill="#FFFFFF" d="M15,286.9c0-9.9,3.4-18.8,10.3-26.6c2.5-2.9,4.5-4.3,5.9-4.3c0.5,0,1,0.2,1.4,0.6c0.4,0.4,0.6,0.8,0.6,1.3
	c0,0.7-0.9,1.9-2.6,3.6c-7.2,6.9-10.8,15.5-10.8,25.6c0,11.3,3.7,20.5,11.2,27.6c1.5,1.4,2.3,2.6,2.3,3.4c0,0.5-0.2,1-0.6,1.4
	c-0.4,0.4-0.9,0.6-1.4,0.6c-1.7,0-4.2-2-7.4-6.1C17.9,306.7,15,297.6,15,286.9z"/>
<path fill="#FFFFFF" d="M108.1,289.4c0,9.9-3.4,18.8-10.3,26.6c-2.5,2.9-4.5,4.3-5.9,4.3c-0.5,0-1-0.2-1.4-0.6
	c-0.4-0.4-0.6-0.8-0.6-1.3c0-0.7,0.9-1.9,2.6-3.6c7.2-6.9,10.8-15.5,10.8-25.7c0-11.3-3.7-20.5-11.2-27.6c-1.5-1.4-2.3-2.6-2.3-3.4
	c0-0.5,0.2-1,0.6-1.4c0.4-0.4,0.9-0.6,1.4-0.6c1.7,0,4.1,2,7.3,6.1C105.2,269.6,108.1,278.7,108.1,289.4z"/>
<path fill="#FFFFFF" d="M85.1,315.4H41.4c-1.4,0-2.6-1.2-2.6-2.6s1.2-2.6,2.6-2.6h43.7c1.4,0,2.6,1.2,2.6,2.6S86.5,315.4,85.1,315.4
	z"/>
<g>
	<rect x="230" y="230.4" fill="#492C14" width="128" height="128"/>
	<path fill="#392312" d="M358,296.2l-28.3-28l7.2,23.2l-3,16l-30.9-28.5l-2.2-1.5l-7.8-7.9l-2.6,7.9l-3.5,8.9l-23.7-23.8l-4.8,4.3
		L249,287c0,0,2.6,22.9,2.6,23.3s5.5,12.8,5.5,12.8l36.9,35.2l0.1,0.1h64V296.2z"/>
	<path fill="#FFFFFF" d="M284.2,267c0,0,3.3,2.3,3.3,6.5c0,7.2-9.8,15.2-9.8,22.7c0,8.1,6.2,13.4,12.1,15c0.8,0.2,1.2-0.8,0.2-1
		c-2.4-0.6-5.1-3.8-5.1-8.8c0-4.6,4.4-6.3,6.2-8.6c1.8-2.3,1.4-5.2,0.3-6c-1.1-0.8-0.4-2,1.6-0.6c1.9,1.3,3.5,3.8,2.9,6.2
		c-0.7,3.1,0.2,4.8,1.8,5c1.6,0.2,3.3-0.6,3.2-2.1s-1.1-3-0.5-3c1.1,0,3.5,2.8,3.5,7.2c0,4.4-3.6,7.5-4.8,8.7
		c-0.7,0.7,0.2,1.6,1.1,1.2c0.5-0.2,1.4-0.8,2-1.2c2.9-2.1,7.4-6.2,7.4-13.9c0-8.1-3.1-11.7-6.1-14.7c-3.1-3-3.9-2.3-3-0.8
		c2.6,4.5,1,6-0.9,6c-2.2,0-2.4-5.1-3.3-9c-1.9-8.7-9.8-10.2-11.3-10.2C283.8,265.4,282.4,266.2,284.2,267z"/>
	<path fill="#FFFFFF" d="M246,292.9c0-9.9,3.4-18.8,10.3-26.6c2.5-2.9,4.5-4.3,5.9-4.3c0.5,0,1,0.2,1.4,0.6s0.6,0.8,0.6,1.3
		c0,0.7-0.9,1.9-2.6,3.6c-7.2,6.9-10.8,15.5-10.8,25.6c0,11.3,3.7,20.5,11.2,27.6c1.5,1.4,2.2,2.6,2.2,3.4c0,0.5-0.2,1-0.6,1.4
		c-0.4,0.4-0.9,0.6-1.4,0.6c-1.7,0-4.2-2-7.3-6.1C249,312.7,246,303.6,246,292.9z"/>
	<path fill="#FFFFFF" d="M338.9,295.4c0,9.9-3.4,18.8-10.3,26.6c-2.5,2.9-4.5,4.3-5.9,4.3c-0.5,0-1-0.2-1.4-0.6s-0.6-0.8-0.6-1.3
		c0-0.7,0.9-1.9,2.6-3.6c7.2-6.9,10.8-15.5,10.8-25.7c0-11.3-3.7-20.5-11.2-27.6c-1.5-1.4-2.2-2.6-2.2-3.4c0-0.5,0.2-1,0.6-1.4
		c0.4-0.4,0.9-0.6,1.4-0.6c1.7,0,4.1,2,7.3,6.1C336,275.7,338.9,284.8,338.9,295.4z"/>
	<path fill="#FFFFFF" d="M315.9,321.4h-43.6c-1.4,0-2.6-1.2-2.6-2.6c0-1.4,1.2-2.6,2.6-2.6h43.6c1.4,0,2.6,1.2,2.6,2.6
		C318.5,320.2,317.3,321.4,315.9,321.4z"/>
</g>
</svg>
