<?xml version="1.0" encoding="utf-8"?>
<!-- Generator: Adobe Illustrator 18.0.0, SVG Export Plug-In . SVG Version: 6.00 Build 0)  -->
<!DOCTYPE svg PUBLIC "-//W3C//DTD SVG 1.1//EN" "http://www.w3.org/Graphics/SVG/1.1/DTD/svg11.dtd">
<svg version="1.1" id="Layer_1" xmlns="http://www.w3.org/2000/svg" xmlns:xlink="http://www.w3.org/1999/xlink" x="0px" y="0px"
	 viewBox="0 0 512 512" enable-background="new 0 0 512 512" xml:space="preserve">
<path fill="#006400" d="M30,0h452c16.6,0,30,13.4,30,30v452c0,16.6-13.4,30-30,30H30c-16.6,0-30-13.4-30-30V30C0,13.4,13.4,0,30,0z"
	/>
<path fill="#FFFFFF" d="M216.9,147.5c0,0,13.4,9.3,13.4,26c0,28.8-39.1,60.9-39.1,90.8c0,32.4,24.7,53.5,48.7,59.9
	c3.3,0.8,4.8-3.2,0.7-4.2c-9.7-2.4-20.5-15.1-20.5-35c0-18.3,17.7-25.4,24.9-34.4c7.3-9.1,5.6-20.8,1.3-24.1
	c-4.2-3.4-1.4-7.9,6.3-2.5c7.8,5.4,14,15.4,11.7,25c-3,12.2,0.9,19.2,7.3,20.1s13.4-2.3,12.7-8.2c-0.7-5.9-4.2-12.1-2.1-12.1
	c4.5,0,14.1,11.2,14.1,28.8c0,17.7-14.6,30.1-19.1,34.7c-2.7,2.8,0.9,6.4,4.5,4.8c1.9-0.8,5.8-3.1,8.2-4.8
	c11.6-8.3,29.6-24.9,29.6-55.8c0-32.3-12.3-46.8-24.6-58.9c-12.3-12.1-15.5-9-12-3.1c10.6,18.1,4.2,24.2-3.6,24.2
	c-9,0-9.5-20.5-13-36.1c-7.8-34.7-39.1-40.6-45.1-40.9C215.1,141,209.9,144.4,216.9,147.5z"/>
<path fill="#FFFFFF" d="M63.8,251.1c0-39.7,13.8-75.1,41.4-106.3c10.1-11.4,18-17.2,23.5-17.2c2.1,0,3.9,0.8,5.6,2.3
	c1.7,1.5,2.5,3.2,2.5,5.2c0,2.9-3.5,7.7-10.6,14.5C97.4,177.3,83,211.5,83,252.2c0,45.2,14.9,82,44.8,110.5c6,5.7,9,10.3,9,13.7
	c0,2.2-0.8,4.1-2.5,5.7s-3.5,2.5-5.7,2.5c-6.9,0-16.7-8.1-29.4-24.2C75.6,330.3,63.8,293.9,63.8,251.1z"/>
<path fill="#FFFFFF" d="M436.4,261.1c0,39.8-13.8,75.2-41.4,106.4c-10.1,11.4-18,17.2-23.5,17.2c-2.1,0-3.9-0.8-5.6-2.3
	c-1.7-1.5-2.5-3.3-2.5-5.3c0-2.8,3.5-7.6,10.6-14.4c28.8-27.6,43.2-61.8,43.2-102.7c0-45.1-14.9-82-44.8-110.5c-6-5.7-9-10.2-9-13.5
	c0-2.2,0.8-4.1,2.5-5.8c1.6-1.7,3.5-2.5,5.7-2.5c6.8,0,16.5,8.1,29.3,24.3C424.5,182.2,436.4,218.6,436.4,261.1z"/>
<path fill="#FFFFFF" d="M344.1,365.2H169.4c-5.7,0-10.4-4.6-10.4-10.4s4.6-10.4,10.4-10.4h174.7c5.7,0,10.4,4.6,10.4,10.4
	S349.8,365.2,344.1,365.2z"/>
</svg>
