<?xml version="1.0" encoding="UTF-8" standalone="no"?>
<!-- Generator: Adobe Illustrator 18.0.0, SVG Export Plug-In . SVG Version: 6.00 Build 0)  -->

<svg
   xmlns:dc="http://purl.org/dc/elements/1.1/"
   xmlns:cc="http://creativecommons.org/ns#"
   xmlns:rdf="http://www.w3.org/1999/02/22-rdf-syntax-ns#"
   xmlns:svg="http://www.w3.org/2000/svg"
   xmlns="http://www.w3.org/2000/svg"
   xmlns:sodipodi="http://sodipodi.sourceforge.net/DTD/sodipodi-0.dtd"
   xmlns:inkscape="http://www.inkscape.org/namespaces/inkscape"
   version="1.1"
   id="Layer_1"
   x="0px"
   y="0px"
   viewBox="0 0 1280 720"
   enable-background="new 0 0 498.8 72"
   xml:space="preserve"
   inkscape:version="0.48.5 r10040"
   width="100%"
   height="100%"
   sodipodi:docname="FB_CoverFCC.svg"
   inkscape:export-filename="C:\Users\anon\Desktop\vimeoFCC.png"
   inkscape:export-xdpi="90"
   inkscape:export-ydpi="90"><metadata
   id="metadata47"><rdf:RDF><cc:Work
       rdf:about=""><dc:format>image/svg+xml</dc:format><dc:type
         rdf:resource="http://purl.org/dc/dcmitype/StillImage" /><dc:title></dc:title></cc:Work></rdf:RDF></metadata><defs
   id="defs45">
	
	
	
	
	
	
	
	
	
	
	
	
	
	
</defs><sodipodi:namedview
   pagecolor="#ffffff"
   bordercolor="#666666"
   borderopacity="1"
   objecttolerance="10"
   gridtolerance="10"
   guidetolerance="10"
   inkscape:pageopacity="0"
   inkscape:pageshadow="2"
   inkscape:window-width="1366"
   inkscape:window-height="705"
   id="namedview43"
   showgrid="false"
   inkscape:zoom="0.35355339"
   inkscape:cx="434.50215"
   inkscape:cy="508.0019"
   inkscape:window-x="-4"
   inkscape:window-y="-4"
   inkscape:window-maximized="1"
   inkscape:current-layer="Layer_1"
   borderlayer="true"
   inkscape:showpageshadow="false" />
<rect
   style="fill:#5fcf80;fill-opacity:1;stroke:none"
   id="rect3779"
   width="1435"
   height="774"
   x="-62"
   y="-36"
   ry="21.281548" /><rect
   inkscape:export-ydpi="90"
   inkscape:export-xdpi="90"
   inkscape:export-filename="C:\Users\anon\Desktop\logo4.0.png"
   ry="10.393314"
   y="463.95837"
   x="-354.83176"
   height="83.636047"
   width="18"
   id="rect3825"
   style="fill:#502d16;fill-opacity:1;stroke:none" /><rect
   style="fill:#502d16;fill-opacity:1;stroke:none"
   id="rect3823"
   width="18"
   height="83.636047"
   x="-715.83173"
   y="455.95837"
   ry="10.393314"
   inkscape:export-filename="C:\Users\anon\Desktop\logo4.0.png"
   inkscape:export-xdpi="90"
   inkscape:export-ydpi="90" /><rect
   style="fill:#502d16;fill-opacity:1;stroke:none"
   id="rect3038"
   width="1182.5138"
   height="161.0762"
   x="45.294365"
   y="291.0918"
   ry="20.016674"
   inkscape:export-filename="C:\Users\anon\Desktop\logo4.0.png"
   inkscape:export-xdpi="90"
   inkscape:export-ydpi="90" /><path
   style="fill:#ffffff"
   inkscape:connector-curvature="0"
   id="path5"
   d="M 81.936649,351.43486 H 71.927093 c -3.503342,0 -5.255023,-1.50143 -5.255023,-4.5043 0,-3.00285 1.751681,-4.5043 5.255023,-4.5043 h 10.009556 v -8.75836 c 0,-15.26458 7.757406,-22.77175 23.272221,-22.77175 6.25598,0 11.51098,1.25121 15.76504,3.50336 5.25503,3.25311 8.00765,8.00764 8.00765,14.01339 0,4.00381 -1.50143,5.75549 -4.5043,5.75549 -2.00192,0 -3.75358,-1.25121 -4.75454,-3.50336 -1.25119,-4.00381 -2.50238,-6.25596 -3.25311,-7.25692 -1.75166,-2.25215 -5.50523,-3.50336 -11.01051,-3.50336 -9.509068,0 -14.013368,4.75455 -14.013368,14.01338 v 8.50813 h 18.267438 c 4.00383,0 6.00574,1.50145 6.00574,4.5043 0,3.00287 -2.00191,4.5043 -6.00574,4.5043 H 91.445732 v 57.30472 c 0,3.50336 -1.501442,5.25502 -4.504315,5.25502 -3.002853,0 -4.50428,-1.75166 -4.50428,-5.25502 v -57.30472 z"
   inkscape:export-filename="C:\Users\anon\Desktop\logo4.0.png"
   inkscape:export-xdpi="90"
   inkscape:export-ydpi="90" /><path
   style="fill:#ffffff"
   inkscape:connector-curvature="0"
   id="path7"
   d="m 163.26429,403.73481 v -52.29995 h -13.51288 c -3.75359,0 -5.50526,-1.50143 -5.50526,-4.5043 0,-3.00285 1.75167,-4.5043 5.50526,-4.5043 h 18.0172 c 3.00285,0 4.75453,2.75262 4.75453,7.75741 5.50526,-6.00575 11.511,-9.25885 17.76696,-9.25885 5.25502,0 9.25885,1.50144 12.26171,4.75455 3.00287,3.25311 4.5043,7.50717 4.5043,12.51194 0,3.50336 -1.50143,5.25502 -4.5043,5.25502 -1.75167,0 -3.00286,-1.25119 -3.75358,-3.50334 -1.25119,-4.25406 -2.00192,-6.50621 -2.25215,-6.75645 -1.25119,-2.25215 -3.75358,-3.50334 -7.00668,-3.50334 -3.50336,0 -6.75647,1.25119 -9.75932,3.75358 -1.75168,1.25119 -4.25407,4.00383 -7.50717,8.00764 v 41.7899 h 17.01624 c 3.75359,0 5.50525,1.50145 5.50525,4.25407 0,3.00287 -1.75166,4.75455 -5.50525,4.75455 h -39.78799 c -3.75358,0 -5.50526,-1.50145 -5.50526,-4.50432 0,-3.00285 1.75168,-4.5043 5.50526,-4.5043 h 13.76313 z"
   inkscape:export-filename="C:\Users\anon\Desktop\logo4.0.png"
   inkscape:export-xdpi="90"
   inkscape:export-ydpi="90" /><path
   style="fill:#ffffff"
   inkscape:connector-curvature="0"
   id="path9"
   d="m 231.57952,379.21138 v 10.00958 c 0,10.76026 7.50717,16.01528 22.77175,16.01528 5.50525,0 10.00955,-0.50047 13.51289,-1.75168 1.75168,-0.50047 5.00479,-2.25215 9.25886,-5.25501 2.75263,-2.5024 4.75453,-3.75359 5.50525,-3.75359 2.50239,0 3.7536,1.25119 3.7536,4.00381 0,2.75264 -1.75168,5.50528 -5.50528,8.50815 -6.00572,4.75453 -15.01432,7.25692 -27.02579,7.25692 -21.02007,0 -31.5301,-8.2579 -31.5301,-24.77365 v -25.0239 c 0,-5.75551 2.25213,-10.76026 6.5062,-14.76409 5.75549,-5.50528 14.26362,-8.00766 25.77462,-8.00766 20.51958,0 30.77937,10.25981 30.77937,30.52916 0,5.00478 -2.00191,7.50717 -5.75549,7.50717 h -48.04588 z m 0,-9.0086 h 44.79277 c 0,-13.5129 -7.50717,-20.26935 -22.77173,-20.26935 -5.50525,0 -10.51004,1.2512 -15.01434,3.7536 -4.5043,3.25309 -7.0067,7.00668 -7.0067,11.26075 v 5.255 z"
   inkscape:export-filename="C:\Users\anon\Desktop\logo4.0.png"
   inkscape:export-xdpi="90"
   inkscape:export-ydpi="90" /><path
   style="fill:#ffffff"
   inkscape:connector-curvature="0"
   id="path11"
   d="m 310.15456,379.21138 v 10.00958 c 0,10.76026 7.50717,16.01528 22.77173,16.01528 5.50527,0 10.00957,-0.50047 13.51292,-1.75168 1.75168,-0.50047 5.00478,-2.25215 9.25883,-5.25501 2.75264,-2.5024 4.75455,-3.75359 5.50526,-3.75359 2.5024,0 3.75359,1.25119 3.75359,4.00381 0,2.75264 -1.75168,5.50528 -5.50526,8.50815 -6.00574,4.75453 -15.01434,7.25692 -27.02581,7.25692 -21.02007,0 -31.5301,-8.2579 -31.5301,-24.77365 v -25.0239 c 0,-5.75551 2.25213,-10.76026 6.5062,-14.76409 5.75551,-5.50528 14.26362,-8.00766 25.77462,-8.00766 20.51958,0 30.77937,10.25981 30.77937,30.52916 0,5.00478 -2.00189,7.50717 -5.75549,7.50717 h -48.04586 z m 0,-9.0086 h 44.79276 c 0,-13.5129 -7.50716,-20.26935 -22.77174,-20.26935 -5.50525,0 -10.51004,1.2512 -15.01434,3.7536 -4.75453,3.25309 -7.00668,7.00668 -7.00668,11.26075 v 5.255 z"
   inkscape:export-filename="C:\Users\anon\Desktop\logo4.0.png"
   inkscape:export-xdpi="90"
   inkscape:export-ydpi="90" /><path
   style="fill:#ffffff"
   inkscape:connector-curvature="0"
   id="path13"
   d="M 380.4717,384.96687 V 345.9296 c 0,-20.5196 10.76028,-30.52913 32.53106,-30.52913 8.75836,0 15.76506,2.00189 21.27032,5.75549 6.25596,4.75453 9.25883,11.26075 9.25883,19.26839 0,3.75357 -1.50144,5.75551 -4.75455,5.75551 -2.25213,0 -3.75358,-1.75168 -4.75453,-5.50526 -0.50047,-3.00289 -1.75168,-6.00574 -3.50335,-8.75838 -2.75261,-5.00477 -8.75836,-7.25692 -18.26743,-7.25692 -8.00766,0 -13.76315,2.00192 -17.26649,6.00573 -3.25311,3.75357 -5.00479,9.50908 -5.00479,17.76696 v 32.53107 c 0,8.50813 1.75168,14.51386 5.25502,18.26745 3.75358,4.00381 9.50909,6.25596 17.51673,6.25596 12.26171,0 19.26841,-4.25406 21.02007,-12.76217 0.7507,-3.25311 1.00096,-4.75456 1.00096,-5.00479 0.7507,-1.75166 2.00191,-2.75264 3.75359,-2.75264 3.00286,0 4.75454,2.00194 4.75454,5.75551 0,7.75739 -3.25311,13.76313 -9.75932,18.51767 -5.25503,3.50336 -12.01147,5.25504 -20.5196,5.25504 -10.00956,0 -17.76697,-2.25215 -23.52246,-7.0067 -6.00574,-5.25503 -9.0086,-12.7622 -9.0086,-22.52152 z"
   inkscape:export-filename="C:\Users\anon\Desktop\logo4.0.png"
   inkscape:export-xdpi="90"
   inkscape:export-ydpi="90" /><path
   style="fill:#ffffff"
   inkscape:connector-curvature="0"
   id="path15"
   d="m 458.04577,390.47213 v -25.77461 c 0,-15.76504 10.51004,-23.52245 31.53011,-23.52245 21.02007,0 31.5301,7.75741 31.5301,23.52245 v 25.77461 c 0,15.76506 -10.25979,23.52247 -31.02963,23.52247 -21.52054,0 -32.03058,-7.75741 -32.03058,-23.52247 z m 53.80137,0 v -25.77461 c 0,-9.75932 -7.50717,-14.76409 -22.77175,-14.76409 -14.51385,0 -22.02102,5.00477 -22.02102,14.76409 v 25.77461 c 0,9.75932 7.50717,14.76411 22.52151,14.51385 15.01433,0 22.27126,-4.75453 22.27126,-14.51385 z"
   inkscape:export-filename="C:\Users\anon\Desktop\logo4.0.png"
   inkscape:export-xdpi="90"
   inkscape:export-ydpi="90" /><path
   style="fill:#ffffff"
   inkscape:connector-curvature="0"
   id="path17"
   d="m 589.92168,405.48647 c -4.25405,3.25311 -8.00764,5.25502 -11.26075,6.50622 -3.50334,1.25119 -7.75739,2.00191 -12.76218,2.00191 -8.50813,0 -15.26457,-1.75166 -20.5196,-5.25502 -6.00574,-4.00381 -9.00859,-10.00956 -9.00859,-18.26745 v -26.27507 c 0,-7.75741 3.00285,-13.76314 8.75836,-17.76697 5.00477,-3.50334 11.76124,-5.25502 19.76888,-5.25502 5.25502,0 9.75932,0.50047 13.26266,1.75168 3.50334,1.25117 7.25694,3.50334 11.26075,6.75645 v -32.28084 c 0,-4.25406 1.50144,-6.50621 4.25406,-6.50621 3.00288,0 4.75456,2.25215 4.75456,6.50621 v 91.83769 c 0,3.25311 -1.50145,4.75455 -4.25409,4.75455 -1.75166,0 -3.00285,-1.00096 -3.50334,-3.00287 -0.50047,-1.50143 -0.75072,-3.25311 -0.75072,-5.50526 z m -0.50047,-10.51002 v -36.03442 c -4.5043,-3.2531 -8.00764,-5.50525 -10.76028,-6.50621 -3.75358,-1.50143 -7.75739,-2.25215 -12.26171,-2.25215 -5.75549,0 -10.51002,1.00096 -14.01338,3.25311 -4.50428,2.75263 -6.75643,6.75645 -6.75643,11.76121 v 24.77367 c 0,5.255 2.25215,9.25885 7.00668,12.01147 3.7536,2.00192 8.50813,3.25311 14.26362,3.25311 4.75454,0 9.0086,-0.75073 12.51194,-2.25215 3.00287,-2.00192 6.25598,-4.50432 10.00956,-8.00764 z"
   inkscape:export-filename="C:\Users\anon\Desktop\logo4.0.png"
   inkscape:export-xdpi="90"
   inkscape:export-ydpi="90" /><path
   style="fill:#ffffff"
   inkscape:connector-curvature="0"
   id="path19"
   d="m 623.95418,379.21138 v 10.00958 c 0,10.76026 7.50717,16.01528 22.77175,16.01528 5.50525,0 10.00955,-0.50047 13.51291,-1.75168 1.75166,-0.50047 5.00477,-2.25215 9.25884,-5.25501 2.75261,-2.5024 4.75455,-3.75359 5.50525,-3.75359 2.50239,0 3.75358,1.25119 3.75358,4.00381 0,2.75264 -1.75166,5.50528 -5.50526,8.50815 -6.00572,4.75453 -15.01434,7.25692 -27.02579,7.25692 -21.02007,0 -31.53012,-8.2579 -31.53012,-24.77365 v -25.0239 c 0,-5.75551 2.25215,-10.76026 6.50622,-14.76409 5.75549,-5.50528 14.26362,-8.00766 25.7746,-8.00766 20.5196,0 30.77939,10.25981 30.77939,30.52916 0,5.00478 -2.00189,7.50717 -5.75549,7.50717 h -48.04588 z m 0,-9.0086 h 44.79277 c 0,-13.5129 -7.50715,-20.26935 -22.77175,-20.26935 -5.50525,0 -10.51002,1.2512 -15.01432,3.7536 -4.75454,3.25309 -7.0067,7.00668 -7.0067,11.26075 v 5.255 z"
   inkscape:export-filename="C:\Users\anon\Desktop\logo4.0.png"
   inkscape:export-xdpi="90"
   inkscape:export-ydpi="90" /><path
   style="fill:#ffffff"
   inkscape:connector-curvature="0"
   id="path21"
   d="M 694.27132,384.96687 V 345.9296 c 0,-20.5196 10.76028,-30.52913 32.53107,-30.52913 8.75837,0 15.76507,2.00189 21.27031,5.75549 6.25598,4.75453 9.25883,11.26075 9.25883,19.26839 0,3.75357 -1.50143,5.75551 -4.75453,5.75551 -2.25215,0 -3.75358,-1.75168 -4.75454,-5.50526 -0.50047,-3.00289 -1.75168,-6.00574 -3.50336,-8.75838 -2.75262,-5.00477 -8.75834,-7.25692 -18.26743,-7.25692 -8.00764,0 -13.76313,2.00192 -17.26649,6.00573 -3.25311,3.75357 -5.00477,9.50908 -5.00477,17.76696 v 32.53107 c 0,8.50813 1.75166,14.51386 5.25502,18.26745 3.75358,4.00381 9.50907,6.25596 17.51671,6.25596 12.26172,0 19.26841,-4.25406 21.02007,-12.76217 0.75072,-3.25311 1.00096,-4.75456 1.00096,-5.00479 0.75072,-1.75166 2.00193,-2.75264 3.75359,-2.75264 3.00287,0 4.75456,2.00194 4.75456,5.75551 0,7.75739 -3.25311,13.76313 -9.75933,18.51767 -5.25502,3.50336 -12.01149,5.25504 -20.5196,5.25504 -10.00955,0 -17.76696,-2.25215 -23.52245,-7.0067 -5.75551,-5.25503 -9.00862,-12.7622 -9.00862,-22.52152 z"
   inkscape:export-filename="C:\Users\anon\Desktop\logo4.0.png"
   inkscape:export-xdpi="90"
   inkscape:export-ydpi="90" /><path
   style="fill:#ffffff"
   inkscape:connector-curvature="0"
   id="path23"
   d="m 822.39365,405.48647 c -4.50428,3.25311 -8.00764,5.50526 -10.51002,6.50622 -3.25311,1.25119 -7.25694,2.00191 -12.26171,2.00191 -7.50717,0 -13.76315,-1.50144 -18.51768,-4.75455 -5.50526,-3.75358 -8.50811,-9.25883 -8.50811,-16.51575 0,-7.25694 3.00285,-13.01243 8.75834,-17.01624 5.00479,-3.7536 11.511,-5.50528 19.01816,-5.50528 6.25598,0 13.26268,1.50143 21.27032,4.25407 v -11.01052 c 0,-5.25502 -2.5024,-9.0086 -7.50717,-11.26076 -3.50334,-1.50143 -7.75741,-2.25214 -12.7622,-2.25214 -11.76121,0 -18.01719,3.25311 -19.26838,9.75931 -0.50049,3.00289 -1.00096,4.50432 -1.00096,4.75455 -0.75072,1.50145 -2.0019,2.25215 -3.75358,2.25215 -3.25311,0 -5.00479,-1.75166 -5.00479,-5.25502 0,-4.75454 1.75168,-9.0086 5.50526,-13.01243 4.50432,-5.00477 12.76218,-7.50717 24.27318,-7.50717 9.25885,0 16.0153,1.50144 20.5196,4.50432 5.25502,3.75357 8.00764,10.00953 8.00764,18.76792 v 32.03058 c 0,3.75358 0.75072,6.25598 2.25215,7.50717 0.25023,0.25024 1.75168,1.00096 4.25406,2.00192 1.50143,0.7507 2.25215,2.00189 2.25215,4.25404 0,2.50239 -1.25119,3.7536 -4.00383,3.7536 -0.7507,0 -2.00189,-0.25026 -4.00381,-1.00096 -3.50334,-1.25121 -5.75551,-2.00192 -6.25598,-2.25215 -1.25119,-0.75072 -2.25215,-2.50238 -2.75264,-5.00479 z m -0.50046,-9.50907 v -13.26266 c -7.00669,-2.25215 -13.76314,-3.50336 -19.76888,-3.50336 -13.5129,0 -20.26935,4.25406 -20.26935,13.01243 0,4.50432 2.00192,8.00764 6.00573,10.00955 3.2531,1.75169 7.25693,2.75262 12.26172,2.75262 4.25405,0 8.25788,-0.7507 11.76122,-2.50236 2.75264,-1.00096 6.00574,-3.25311 10.00956,-6.50622 z"
   inkscape:export-filename="C:\Users\anon\Desktop\logo4.0.png"
   inkscape:export-xdpi="90"
   inkscape:export-ydpi="90" /><path
   style="fill:#ffffff"
   inkscape:connector-curvature="0"
   id="path25"
   d="m 857.42711,348.68224 c 2.25215,-2.75264 4.25406,-4.75453 5.75549,-5.50525 2.00194,-1.25122 4.50432,-2.00192 7.75743,-2.00192 5.00477,0 9.25883,2.50239 13.01243,7.75741 2.50236,-3.00288 4.75453,-5.00477 6.75643,-6.00573 2.25215,-1.25121 5.25502,-1.75168 8.75836,-1.75168 10.76028,0 16.26554,5.25502 16.26554,15.76505 v 50.7985 c 0,4.25407 -1.50143,6.25598 -4.75454,6.25598 -3.00287,0 -4.5043,-2.00191 -4.5043,-6.25598 v -47.79563 c 0,-6.50621 -2.75264,-10.00956 -8.00764,-10.00956 -4.00383,0 -8.00764,2.50239 -11.511,7.25692 v 50.54827 c 0,4.25407 -1.50143,6.25598 -4.5043,6.25598 -3.00287,0 -4.5043,-2.00191 -4.5043,-6.25598 v -46.79467 c 0,-7.25692 -3.00287,-10.76028 -8.75836,-10.76028 -3.7536,0 -7.25692,2.50238 -11.01052,7.25694 v 50.29801 c 0,4.25407 -1.50142,6.25598 -4.75453,6.25598 -3.00287,0 -4.5043,-2.00191 -4.5043,-6.25598 v -62.05925 c 0,-3.00287 1.25119,-4.5043 3.75358,-4.5043 1.25121,0 2.50238,1.00096 3.2531,2.75264 1.00096,1.25117 1.50143,3.00285 1.50143,4.75453 z"
   inkscape:export-filename="C:\Users\anon\Desktop\logo4.0.png"
   inkscape:export-xdpi="90"
   inkscape:export-ydpi="90" /><path
   style="fill:#ffffff"
   inkscape:connector-curvature="0"
   id="path27"
   d="m 938.75477,348.68224 c 7.0067,-5.00478 15.26458,-7.50717 24.27318,-7.50717 19.01815,0 28.52724,8.00764 28.52724,23.77271 v 26.02484 c 0,7.50715 -2.75262,13.26266 -8.00764,17.51672 -4.75454,3.7536 -11.26075,5.7555 -19.51865,5.7555 -9.75932,0 -18.01719,-2.50239 -25.27413,-7.75741 v 29.5282 c 0,4.5043 -1.50143,6.75645 -4.5043,6.75645 -3.00287,0 -4.5043,-2.25215 -4.5043,-6.75645 v -88.08411 c 0,-4.5043 1.25119,-6.75645 3.7536,-6.75645 1.25117,0 2.50238,1.00096 3.50332,2.75264 0.50049,1.50143 1.25121,3.25311 1.75168,4.75453 z m 0,47.5454 c 6.50621,5.75549 14.51386,8.75834 23.77271,8.75834 5.75549,0 10.25979,-1.00093 13.76313,-3.2531 4.25406,-2.50237 6.25598,-6.25596 6.25598,-11.0105 v -26.02486 c 0,-5.50525 -2.25215,-9.25885 -6.75645,-11.76121 -3.50334,-1.75168 -8.25789,-2.75264 -14.01339,-2.75264 -5.25502,0 -9.50906,0.75072 -12.76217,2.25215 -3.00287,1.25121 -6.25598,4.00383 -10.25981,8.00764 v 35.78418 z"
   inkscape:export-filename="C:\Users\anon\Desktop\logo4.0.png"
   inkscape:export-xdpi="90"
   inkscape:export-ydpi="90" /><path
   style="fill:#ffffff"
   inkscape:connector-curvature="0"
   id="path29"
   d="m 1022.5848,371.45399 c 0,-19.76889 6.7565,-37.2856 20.5196,-52.80042 5.0048,-5.75551 9.0086,-8.50812 11.7612,-8.50812 1.001,0 2.002,0.25023 2.7527,1.00095 0.7507,0.75071 1.2512,1.50143 1.2512,2.50239 0,1.50142 -1.7517,3.75357 -5.2551,7.25693 -14.2636,13.76314 -21.5205,30.77938 -21.5205,51.04874 0,22.5215 7.5072,40.78895 22.2713,54.80234 3.0028,2.75261 4.5043,5.00476 4.5043,6.75642 0,1.00096 -0.5005,2.00192 -1.2512,2.75264 -0.7507,0.75073 -1.7517,1.2512 -2.7527,1.2512 -3.5033,0 -8.2578,-4.00384 -14.5138,-12.01148 -12.0115,-14.76409 -17.767,-32.78128 -17.767,-54.05159 z"
   inkscape:export-filename="C:\Users\anon\Desktop\logo4.0.png"
   inkscape:export-xdpi="90"
   inkscape:export-ydpi="90" /><path
   style="fill:#ffffff"
   inkscape:connector-curvature="0"
   id="path31"
   d="m 1212.0157,376.45876 c 0,19.76888 -6.7564,37.28561 -20.5196,52.80042 -5.0048,5.75549 -9.0086,8.50811 -11.7612,8.50811 -1.001,0 -2.0019,-0.25023 -2.7527,-1.00096 -0.7507,-0.7507 -1.2511,-1.75166 -1.2511,-2.75262 0,-1.50142 1.7516,-3.75359 5.255,-7.0067 14.2636,-13.76313 21.5205,-30.77937 21.5205,-51.04874 0,-22.52149 -7.5071,-40.78894 -22.2712,-54.80231 -3.0029,-2.75264 -4.5043,-5.00479 -4.5043,-6.75645 0,-1.00098 0.5004,-2.00193 1.2511,-2.75264 0.7508,-0.75072 1.7517,-1.25119 2.7527,-1.25119 3.2531,0 8.2579,4.00383 14.5138,12.01147 11.7613,15.01434 17.767,33.03152 17.767,54.05161 z"
   inkscape:export-filename="C:\Users\anon\Desktop\logo4.0.png"
   inkscape:export-xdpi="90"
   inkscape:export-ydpi="90" />
<g
   id="g33"
   style="fill:#f9f9f9"
   inkscape:export-filename="C:\Users\anon\Desktop\logo4.0.png"
   inkscape:export-xdpi="90"
   inkscape:export-ydpi="90"
   transform="matrix(2.5023894,0,0,2.5023894,10.019816,292.82522)">
	<line
   x1="424.39999"
   y1="54.099998"
   x2="459.10001"
   y2="54.099998"
   id="line35"
   style="fill:#f9f9f9" />
	<path
   d="m 459,56.2 h -34.7 c -1.1,0 -2.1,-0.9 -2.1,-2.1 0,-1.2 0.9,-2.1 2.1,-2.1 H 459 c 1.1,0 2.1,0.9 2.1,2.1 0,1.2 -0.9,2.1 -2.1,2.1 z"
   id="path37"
   style="fill:#f9f9f9"
   inkscape:connector-curvature="0" />
</g>


<rect
   inkscape:export-ydpi="90"
   inkscape:export-xdpi="90"
   inkscape:export-filename="C:\Users\anon\Desktop\logo4.0Twitter2.png"
   ry="22.294886"
   y="834.03986"
   x="200"
   height="179.40916"
   width="200"
   id="rect3040"
   style="fill:#502d16;fill-opacity:1;stroke:none" /><path
   id="path3081"
   d="m 1145.8185,350.3811 c -1.4023,-4.71217 -3.6029,-9.13566 -7.0122,-12.66134 -0.9031,-0.93376 -1.8697,-1.80514 -2.8331,-2.67545 -0.755,-0.6821 -2.6268,-1.78715 -3.017,-2.70506 1.987,4.67622 3.9783,9.52692 2.4777,14.65365 -0.6778,2.3191 -3.2433,7.87304 -6.585,6.45707 -3.1608,-1.33986 -2.7928,-7.96398 -3.0646,-10.64049 -0.6683,-6.56703 -2.1192,-13.12138 -5.6216,-18.80538 -1.9077,-3.09635 -4.4066,-5.85007 -7.5526,-7.71758 -4.1316,-2.45234 -8.4166,-4.10095 -13.1182,-2.32331 1.0353,-0.39129 3.7615,2.74207 4.2702,3.3459 1.6475,1.95319 3.0201,4.26381 3.7551,6.72036 1.4932,4.99136 0.1905,10.6754 -1.5535,15.43304 -3.6091,9.84629 -9.6305,18.70172 -12.5206,28.82722 -1.0079,3.52886 -1.6994,7.15608 -1.8887,10.82555 -0.5943,11.55945 5.4069,22.14812 14.9127,28.61362 2.1573,1.46674 5.9928,3.3036 8.7243,2.35819 -7.9787,-4.26697 -10.632,-7.77257 -11.864,-12.79459 -2.8563,-11.64299 8.0391,-19.03589 12.7513,-28.2456 1.2542,-2.45127 2.1646,-5.1447 1.8474,-7.92482 -0.1183,-1.03636 -1.2986,-6.13348 -2.8637,-5.88286 4.7439,-0.76033 7.8328,2.39733 9.4561,6.51733 1.71,4.33994 2.7262,8.79831 1.9712,13.41427 -0.2528,1.54395 -1.4139,6.36717 0.8217,6.68019 3.0772,0.4325 5.7189,-3.65047 5.0875,-7.58963 -0.3246,-1.81148 -0.6482,-4.63603 -0.6482,-4.63711 3.2698,4.028 4.7523,8.05914 5.2325,12.48053 0.8586,7.91324 -2.5127,18.31366 -8.8544,24.77176 2.6659,-2.71566 6.0594,-4.5927 8.6333,-7.49234 2.629,-2.95993 4.635,-6.38407 6.2033,-10.00809 3.5108,-8.11099 5.5613,-17.27944 4.9903,-26.13591 -0.2707,-4.22573 -0.8862,-8.65666 -2.1372,-12.85912 z"
   inkscape:connector-curvature="0"
   style="fill:#ffffff"
   inkscape:export-filename="C:\Users\anon\Desktop\logo4.0.png"
   inkscape:export-xdpi="90"
   inkscape:export-ydpi="90" /><path
   inkscape:export-ydpi="90"
   inkscape:export-xdpi="90"
   inkscape:export-filename="C:\Users\anon\Desktop\logo4.0Twitter2.png"
   d="m 214.70064,921.57635 c 0,-19.06321 6.10305,-35.95467 18.5352,-50.9157 4.52077,-5.55004 8.13741,-8.20442 10.62383,-8.20442 0.90416,0 1.80829,0.24132 2.48641,0.96523 0.67815,0.72393 1.13021,1.44786 1.13021,2.41305 0,1.44787 -1.58228,3.61962 -4.74684,6.9979 -12.88419,13.27188 -19.43933,29.68073 -19.43933,49.22657 0,21.71758 6.78117,39.33299 20.11747,52.84616 2.71247,2.65438 4.0687,4.82612 4.0687,6.51526 0,0.96523 -0.45206,1.93047 -1.13021,2.65436 -0.67812,0.72393 -1.58225,1.20655 -2.48641,1.20655 -3.16454,0 -7.45927,-3.86091 -13.11025,-11.58271 -10.84989,-14.2371 -16.04878,-31.61117 -16.04878,-52.12225 z"
   id="path3090"
   inkscape:connector-curvature="0"
   style="fill:#ffffff" /><path
   inkscape:export-ydpi="90"
   inkscape:export-xdpi="90"
   inkscape:export-filename="C:\Users\anon\Desktop\logo4.0Twitter2.png"
   d="m 385.8121,926.40249 c 0,19.06322 -6.10306,35.95467 -18.53516,50.91571 -4.5208,5.55005 -8.1374,8.20442 -10.62386,8.20442 -0.90412,0 -1.80831,-0.24131 -2.48643,-0.96523 -0.6781,-0.72391 -1.13017,-1.68914 -1.13017,-2.65439 0,-1.44782 1.58226,-3.61957 4.74681,-6.75657 12.88422,-13.27186 19.43933,-29.68072 19.43933,-49.22653 0,-21.71762 -6.78115,-39.33298 -20.11746,-52.84615 -2.71248,-2.6544 -4.06868,-4.82616 -4.06868,-6.51531 0,-0.96523 0.45207,-1.93045 1.13017,-2.65436 0.67812,-0.72394 1.58231,-1.20653 2.48643,-1.20653 2.93851,0 7.4593,3.86089 13.11029,11.58271 10.62379,14.47841 16.04873,31.85246 16.04873,52.12223 z"
   id="path3092"
   inkscape:connector-curvature="0"
   style="fill:#ffffff" /><g
   transform="matrix(2.2603894,0,0,2.4130664,-696.62882,838.32557)"
   inkscape:export-ydpi="90"
   inkscape:export-xdpi="90"
   inkscape:export-filename="C:\Users\anon\Desktop\logo4.0Twitter2.png"
   style="fill:#f9f9f9"
   id="g3094">
	<line
   style="fill:#f9f9f9"
   id="line3096"
   y2="54.099998"
   x2="459.10001"
   y1="54.099998"
   x1="424.39999" />
	<path
   inkscape:connector-curvature="0"
   style="fill:#f9f9f9"
   id="path3098"
   d="m 459,56.2 h -34.7 c -1.1,0 -2.1,-0.9 -2.1,-2.1 0,-1.2 0.9,-2.1 2.1,-2.1 H 459 c 1.1,0 2.1,0.9 2.1,2.1 0,1.2 -0.9,2.1 -2.1,2.1 z" />
</g><path
   style="fill:#ffffff"
   inkscape:connector-curvature="0"
   d="m 326.01667,901.25568 c -1.2666,-4.54396 -3.25444,-8.80958 -6.33407,-12.20941 -0.81578,-0.90043 -1.68883,-1.74068 -2.55906,-2.57994 -0.682,-0.65775 -2.37277,-1.72339 -2.72526,-2.60851 1.79485,4.50933 3.59355,9.18688 2.23809,14.1306 -0.61232,2.23632 -2.92967,7.592 -5.94816,6.22656 -2.85516,-1.29201 -2.52276,-7.67966 -2.76826,-10.26069 -0.60369,-6.33257 -1.91425,-12.65299 -5.07795,-18.13412 -1.72324,-2.98581 -3.98044,-5.64119 -6.82224,-7.44207 -3.73205,-2.36479 -7.60262,-3.95458 -11.84953,-2.24037 0.93513,-0.37729 3.39772,2.64418 3.85719,3.22647 1.48826,1.88347 2.7281,4.11161 3.39199,6.48047 1.3488,4.81321 0.172,10.29432 -1.40323,14.88217 -3.26017,9.4948 -8.69921,18.03417 -11.30983,27.79823 -0.91037,3.40287 -1.53505,6.90059 -1.70606,10.43911 -0.53682,11.14682 4.88406,21.35754 13.47061,27.59226 1.94863,1.41439 5.41323,3.18568 7.88059,2.27403 -7.20716,-4.11467 -9.60382,-7.49512 -10.71667,-12.33788 -2.58006,-11.22741 7.2616,-18.35643 11.51809,-27.23741 1.13291,-2.36379 1.95535,-4.96105 1.66877,-7.64196 -0.10686,-0.99934 -1.173,-5.91449 -2.58675,-5.67282 4.28518,-0.73318 7.07534,2.31176 8.54163,6.28467 1.5446,4.18504 2.46254,8.48427 1.78054,12.93547 -0.2283,1.48884 -1.27715,6.13987 0.74221,6.44173 2.77969,0.41707 5.16583,-3.52016 4.59558,-7.3187 -0.29324,-1.74683 -0.58556,-4.47057 -0.58556,-4.4716 2.95355,3.88424 4.29279,7.77148 4.72645,12.03502 0.77566,7.63075 -2.26961,17.65993 -7.99811,23.88753 2.40815,-2.6187 5.47347,-4.42874 7.79849,-7.2249 2.37465,-2.85428 4.18672,-6.1562 5.60334,-9.65086 3.17131,-7.82145 5.02351,-16.66265 4.50769,-25.20296 -0.24454,-4.0749 -0.80048,-8.34766 -1.93052,-12.40012 z"
   id="path3100"
   inkscape:export-filename="C:\Users\anon\Desktop\logo4.0Twitter2.png"
   inkscape:export-xdpi="90"
   inkscape:export-ydpi="90" /><rect
   inkscape:export-ydpi="90"
   inkscape:export-xdpi="90"
   inkscape:export-filename="C:\Users\anon\Desktop\logo4.0.png"
   ry="10.393314"
   y="516.95844"
   x="-765.83173"
   height="83.636047"
   width="471"
   id="rect3821"
   style="fill:#502d16;fill-opacity:1;stroke:none" /><text
   xml:space="preserve"
   style="font-size:27.08728218px;font-style:normal;font-weight:normal;line-height:125%;letter-spacing:0px;word-spacing:0px;fill:#ffffff;fill-opacity:1;stroke:none;font-family:sans-serif"
   x="-529.55682"
   y="548.29987"
   id="text3007"
   sodipodi:linespacing="125%"><tspan
     sodipodi:role="line"
     id="tspan3009"
     x="-522.52045"
     y="548.29987"
     style="font-style:normal;font-variant:normal;font-weight:300;font-stretch:normal;text-align:center;text-anchor:middle;fill:#ffffff;fill-opacity:1;font-family:Klartext Mono;-inkscape-font-specification:Klartext Mono Light">Learn to code by collaborating </tspan><tspan
     sodipodi:role="line"
     x="-529.55682"
     y="582.159"
     style="font-style:normal;font-variant:normal;font-weight:300;font-stretch:normal;text-align:center;text-anchor:middle;fill:#ffffff;fill-opacity:1;font-family:Klartext Mono;-inkscape-font-specification:Klartext Mono Light"
     id="tspan3781">on projects for nonprofits</tspan></text>


</svg>