<?xml version="1.0" encoding="UTF-8" standalone="no"?>
<svg width="465px" height="306px" viewBox="0 0 465 306" version="1.1" xmlns="http://www.w3.org/2000/svg" xmlns:xlink="http://www.w3.org/1999/xlink">
    <!-- Generator: Sketch 3.7.2 (28276) - http://www.bohemiancoding.com/sketch -->
    <title>Group</title>
    <desc>Created with Sketch.</desc>
    <defs></defs>
    <g id="Page-1" stroke="none" stroke-width="1" fill="none" fill-rule="evenodd">
        <g id="Group" fill="#FFFFFF">
            <path d="M0.734375,147.007553 C0.734375,99.9376795 17.4276781,57.8225293 51.0672131,20.4143665 C63.2077971,7.03661297 73.3249505,0.1 80.1540291,0.1 C82.4303886,0.1 84.7067481,0.843208532 86.9831076,2.3296256 C88.5006806,3.81604266 90.0182536,6.04566826 90.0182536,8.27529385 C90.0182536,11.9913365 85.4655346,17.1937962 77.1188831,25.6168263 C41.961775,58.5657378 24.2567566,98.9467348 24.2567566,147.750762 C24.2567566,201.757248 42.7205615,245.111079 78.6364561,278.803199 C86.2243211,285.492076 89.2594671,290.694536 89.2594671,295.153787 C89.2594671,297.383413 87.7418941,299.613038 86.2243211,301.842664 C84.7067481,303.329081 81.6716021,304.815498 79.3952426,304.815498 C71.048591,304.815498 59.4138646,295.153787 44.2381346,276.325838 C14.6454609,240.651828 0.734375,198.041206 0.734375,147.007553 L0.734375,147.007553 L0.734375,147.007553 Z" id="path29"></path>
            <path d="M464.1,158.89889 C464.1,205.968763 447.406697,248.083914 413.767162,285.492076 C401.626578,298.86983 391.509424,305.806443 384.680346,305.806443 C382.403986,305.806443 380.127627,305.063234 377.851267,303.576817 C376.333694,302.0904 374.816121,299.117566 374.816121,296.88794 C374.816121,293.171898 379.36884,287.969438 387.715492,280.537353 C422.8726,247.588441 440.577618,207.207444 440.577618,158.403417 C440.577618,104.396931 422.113813,61.0430996 386.197919,27.3509795 C378.610054,20.6621027 375.574908,15.459643 375.574908,11.0003918 C375.574908,8.77076621 377.092481,6.54114061 378.610054,4.31151501 C380.127627,2.82509795 383.162773,1.33868089 385.439132,1.33868089 C393.026997,1.33868089 405.42051,11.0003918 420.59624,29.8283413 C448.671341,65.5023508 464.1,108.112973 464.1,158.89889 L464.1,158.89889 L464.1,158.89889 Z" id="path31"></path>
            <g id="g33" transform="translate(107.580239, 265.729742)">
                <path d="M231.018149,29.7567544 L18.987793,29.7567544 C11.3926758,29.7567544 5.69633791,24.177363 5.69633791,16.7381744 C5.69633791,9.29898576 11.3926758,3.7195943 18.987793,3.7195943 L231.018149,3.7195943 C238.613266,3.7195943 244.309604,9.29898576 244.309604,16.7381744 C242.410824,24.177363 238.613266,29.7567544 231.018149,29.7567544 L231.018149,29.7567544 Z" id="path37"></path>
            </g>
            <path d="M187.395855,25.6168263 C187.395855,25.6168263 205.100873,37.5081628 205.100873,59.3089464 C205.100873,96.7171092 152.997533,137.841315 152.997533,176.735894 C152.997533,218.603308 185.878282,245.606552 217.241457,253.781846 C221.794176,254.525054 223.311749,250.065803 218.000244,248.579386 C205.100873,245.606552 191.189787,229.008228 191.189787,203.739138 C191.189787,179.708729 214.965098,170.790226 224.070536,159.642098 C233.934761,147.750762 231.658401,132.638855 225.588109,128.179604 C219.517817,123.720352 224.070536,117.774684 233.934761,125.20677 C243.798985,131.895646 252.398565,145.521136 249.110491,157.412473 C245.316558,173.019852 250.628064,182.18609 258.974715,183.672507 C267.321367,185.158924 276.679734,180.699673 275.668018,173.267588 C274.656303,165.835503 270.356513,157.660209 272.632872,157.660209 C278.703164,157.660209 291.096677,171.781171 291.096677,195.068372 C291.096677,218.355572 271.874086,233.962951 265.803794,239.90862 C262.009861,243.624662 266.56258,248.083914 271.874086,245.854288 C274.150445,245.111079 279.461951,242.138245 282.497097,239.90862 C297.672827,229.5037 321.448137,207.702917 321.448137,168.065128 C321.448137,126.197714 305.513621,107.369765 288.567389,91.7623856 C271.874086,76.1550064 267.827224,79.8710491 272.632872,88.046343 C286.291029,111.333544 277.944378,119.508837 268.080153,119.508837 C255.939569,119.508837 255.939569,93.2488027 250.375135,73.1821723 C240.51091,28.3419242 198.271795,20.6621027 190.68393,19.9188942 C185.119495,17.4415324 178.037488,21.9007836 187.395855,25.6168263 L187.395855,25.6168263 Z" id="Shape"></path>
        </g>
    </g>
</svg>