<?xml version="1.0" encoding="utf-8"?>
<!-- Generator: Adobe Illustrator 18.0.0, SVG Export Plug-In . SVG Version: 6.00 Build 0)  -->
<!DOCTYPE svg PUBLIC "-//W3C//DTD SVG 1.1//EN" "http://www.w3.org/Graphics/SVG/1.1/DTD/svg11.dtd">
<svg version="1.1"
	 id="Layer_1" xmlns:inkscape="http://www.inkscape.org/namespaces/inkscape" xmlns:svg="http://www.w3.org/2000/svg" xmlns:rdf="http://www.w3.org/1999/02/22-rdf-syntax-ns#" xmlns:cc="http://creativecommons.org/ns#" xmlns:dc="http://purl.org/dc/elements/1.1/" xmlns:sodipodi="http://sodipodi.sourceforge.net/DTD/sodipodi-0.dtd" inkscape:export-ydpi="90" inkscape:export-filename="C:\Users\anon\Desktop\vimeoFCC.png" inkscape:version="0.48.5 r10040" sodipodi:docname="FB_CoverFCC.svg" inkscape:export-xdpi="90"
	 xmlns="http://www.w3.org/2000/svg" xmlns:xlink="http://www.w3.org/1999/xlink" x="0px" y="0px" viewBox="-352 145.5 1200 236.6"
	 enable-background="new -352 145.5 1200 236.6" xml:space="preserve">
<sodipodi:namedview  id="namedview43" borderlayer="true" borderopacity="1" pagecolor="#ffffff" inkscape:cy="508.0019" bordercolor="#666666" objecttolerance="10" showgrid="false" inkscape:zoom="0.35355339" inkscape:cx="434.50215" guidetolerance="10" gridtolerance="10" inkscape:current-layer="Layer_1" inkscape:showpageshadow="false" inkscape:window-y="-4" inkscape:window-maximized="1" inkscape:window-x="-4" inkscape:pageshadow="2" inkscape:pageopacity="0" inkscape:window-width="1366" inkscape:window-height="705">
	</sodipodi:namedview>
<rect x="-352" y="145.5" fill="#492C14" width="1200" height="239.2"/>
<path id="path5_1_" inkscape:export-ydpi="90" inkscape:export-filename="C:\Users\anon\Desktop\logo4.0.png" inkscape:connector-curvature="0" inkscape:export-xdpi="90" fill="#FFFFFF" d="
	M-278.1,252h-9.4c-3.3,0-5-1.4-5-4.3c0-2.8,1.7-4.3,5-4.3h9.4v-8.3c0-14.4,7.3-21.5,22-21.5c5.9,0,10.9,1.2,14.9,3.3
	c5,3.1,7.6,7.6,7.6,13.2c0,3.8-1.4,5.4-4.3,5.4c-1.9,0-3.5-1.2-4.5-3.3c-1.2-3.8-2.4-5.9-3.1-6.8c-1.7-2.1-5.2-3.3-10.4-3.3
	c-9,0-13.2,4.5-13.2,13.2v8h17.2c3.8,0,5.7,1.4,5.7,4.3c0,2.8-1.9,4.3-5.7,4.3h-17.2v54.1c0,3.3-1.4,5-4.3,5c-2.8,0-4.3-1.7-4.3-5
	V252H-278.1z"/>
<path id="path7_1_" inkscape:export-ydpi="90" inkscape:export-filename="C:\Users\anon\Desktop\logo4.0.png" inkscape:connector-curvature="0" inkscape:export-xdpi="90" fill="#FFFFFF" d="
	M-201.4,301.4V252h-12.8c-3.5,0-5.2-1.4-5.2-4.3c0-2.8,1.7-4.3,5.2-4.3h17c2.8,0,4.5,2.6,4.5,7.3c5.2-5.7,10.9-8.7,16.8-8.7
	c5,0,8.7,1.4,11.6,4.5c2.8,3.1,4.3,7.1,4.3,11.8c0,3.3-1.4,5-4.3,5c-1.7,0-2.8-1.2-3.5-3.3c-1.2-4-1.9-6.1-2.1-6.4
	c-1.2-2.1-3.5-3.3-6.6-3.3c-3.3,0-6.4,1.2-9.2,3.5c-1.7,1.2-4,3.8-7.1,7.6v39.4h16.1c3.5,0,5.2,1.4,5.2,4c0,2.8-1.7,4.5-5.2,4.5
	h-37.6c-3.5,0-5.2-1.4-5.2-4.3c0-2.8,1.7-4.3,5.2-4.3h13L-201.4,301.4z"/>
<path id="path9_1_" inkscape:export-ydpi="90" inkscape:export-filename="C:\Users\anon\Desktop\logo4.0.png" inkscape:connector-curvature="0" inkscape:export-xdpi="90" fill="#FFFFFF" d="
	M-136.9,278.2v9.4c0,10.2,7.1,15.1,21.5,15.1c5.2,0,9.4-0.5,12.8-1.7c1.7-0.5,4.7-2.1,8.7-5c2.6-2.4,4.5-3.5,5.2-3.5
	c2.4,0,3.5,1.2,3.5,3.8c0,2.6-1.7,5.2-5.2,8c-5.7,4.5-14.2,6.8-25.5,6.8c-19.8,0-29.8-7.8-29.8-23.4v-23.6c0-5.4,2.1-10.2,6.1-13.9
	c5.4-5.2,13.5-7.6,24.3-7.6c19.4,0,29,9.7,29,28.8c0,4.7-1.9,7.1-5.4,7.1h-45.3L-136.9,278.2z M-136.9,269.7h42.3
	c0-12.8-7.1-19.1-21.5-19.1c-5.2,0-9.9,1.2-14.2,3.5c-4.3,3.1-6.6,6.6-6.6,10.6V269.7z"/>
<path id="path11_1_" inkscape:export-ydpi="90" inkscape:export-filename="C:\Users\anon\Desktop\logo4.0.png" inkscape:connector-curvature="0" inkscape:export-xdpi="90" fill="#FFFFFF" d="
	M-62.8,278.2v9.4c0,10.2,7.1,15.1,21.5,15.1c5.2,0,9.4-0.5,12.8-1.7c1.7-0.5,4.7-2.1,8.7-5c2.6-2.4,4.5-3.5,5.2-3.5
	c2.4,0,3.5,1.2,3.5,3.8c0,2.6-1.7,5.2-5.2,8c-5.7,4.5-14.2,6.8-25.5,6.8c-19.8,0-29.8-7.8-29.8-23.4v-23.6c0-5.4,2.1-10.2,6.1-13.9
	c5.4-5.2,13.5-7.6,24.3-7.6c19.4,0,29,9.7,29,28.8c0,4.7-1.9,7.1-5.4,7.1h-45.3L-62.8,278.2z M-62.8,269.7h42.3
	c0-12.8-7.1-19.1-21.5-19.1c-5.2,0-9.9,1.2-14.2,3.5c-4.5,3.1-6.6,6.6-6.6,10.6V269.7z"/>
<path id="path13_1_" inkscape:export-ydpi="90" inkscape:export-filename="C:\Users\anon\Desktop\logo4.0.png" inkscape:connector-curvature="0" inkscape:export-xdpi="90" fill="#FFFFFF" d="
	M3.6,283.7v-36.8c0-19.4,10.2-28.8,30.7-28.8c8.3,0,14.9,1.9,20.1,5.4c5.9,4.5,8.7,10.6,8.7,18.2c0,3.5-1.4,5.4-4.5,5.4
	c-2.1,0-3.5-1.7-4.5-5.2c-0.5-2.8-1.7-5.7-3.3-8.3c-2.6-4.7-8.3-6.8-17.2-6.8c-7.6,0-13,1.9-16.3,5.7c-3.1,3.5-4.7,9-4.7,16.8v30.7
	c0,8,1.7,13.7,5,17.2c3.5,3.8,9,5.9,16.5,5.9c11.6,0,18.2-4,19.8-12c0.7-3.1,0.9-4.5,0.9-4.7c0.7-1.7,1.9-2.6,3.5-2.6
	c2.8,0,4.5,1.9,4.5,5.4c0,7.3-3.1,13-9.2,17.5c-5,3.3-11.3,5-19.4,5c-9.4,0-16.8-2.1-22.2-6.6C6.4,300,3.6,292.9,3.6,283.7
	L3.6,283.7z"/>
<path id="path15_9_" inkscape:export-ydpi="90" inkscape:export-filename="C:\Users\anon\Desktop\logo4.0.png" inkscape:connector-curvature="0" inkscape:export-xdpi="90" fill="#FFFFFF" d="
	M76.8,288.9v-24.3c0-14.9,9.9-22.2,29.8-22.2s29.8,7.3,29.8,22.2v24.3c0,14.9-9.7,22.2-29.3,22.2C86.7,311.1,76.8,303.7,76.8,288.9
	L76.8,288.9z M127.6,288.9v-24.3c0-9.2-7.1-13.9-21.5-13.9c-13.7,0-20.8,4.7-20.8,13.9v24.3c0,9.2,7.1,13.9,21.3,13.7
	C120.7,302.6,127.6,298.1,127.6,288.9z"/>
<path id="path17_1_" inkscape:export-ydpi="90" inkscape:export-filename="C:\Users\anon\Desktop\logo4.0.png" inkscape:connector-curvature="0" inkscape:export-xdpi="90" fill="#FFFFFF" d="
	M201.3,303c-4,3.1-7.6,5-10.6,6.1c-3.3,1.2-7.3,1.9-12,1.9c-8,0-14.4-1.7-19.4-5c-5.7-3.8-8.5-9.4-8.5-17.2v-24.8
	c0-7.3,2.8-13,8.3-16.8c4.7-3.3,11.1-5,18.7-5c5,0,9.2,0.5,12.5,1.7c3.3,1.2,6.8,3.3,10.6,6.4v-30.5c0-4,1.4-6.1,4-6.1
	c2.8,0,4.5,2.1,4.5,6.1v86.7c0,3.1-1.4,4.5-4,4.5c-1.7,0-2.8-0.9-3.3-2.8C201.5,306.8,201.3,305.2,201.3,303L201.3,303z
	 M200.8,293.1v-34c-4.3-3.1-7.6-5.2-10.2-6.1c-3.5-1.4-7.3-2.1-11.6-2.1c-5.4,0-9.9,0.9-13.2,3.1c-4.3,2.6-6.4,6.4-6.4,11.1v23.4
	c0,5,2.1,8.7,6.6,11.3c3.5,1.9,8,3.1,13.5,3.1c4.5,0,8.5-0.7,11.8-2.1C194.2,298.8,197.3,296.4,200.8,293.1L200.8,293.1z"/>
<path id="path19_1_" inkscape:export-ydpi="90" inkscape:export-filename="C:\Users\anon\Desktop\logo4.0.png" inkscape:connector-curvature="0" inkscape:export-xdpi="90" fill="#FFFFFF" d="
	M233.4,278.2v9.4c0,10.2,7.1,15.1,21.5,15.1c5.2,0,9.4-0.5,12.8-1.7c1.7-0.5,4.7-2.1,8.7-5c2.6-2.4,4.5-3.5,5.2-3.5
	c2.4,0,3.5,1.2,3.5,3.8c0,2.6-1.7,5.2-5.2,8c-5.7,4.5-14.2,6.8-25.5,6.8c-19.8,0-29.8-7.8-29.8-23.4v-23.6c0-5.4,2.1-10.2,6.1-13.9
	c5.4-5.2,13.5-7.6,24.3-7.6c19.4,0,29,9.7,29,28.8c0,4.7-1.9,7.1-5.4,7.1h-45.3V278.2z M233.4,269.7h42.3c0-12.8-7.1-19.1-21.5-19.1
	c-5.2,0-9.9,1.2-14.2,3.5c-4.5,3.1-6.6,6.6-6.6,10.6V269.7z"/>
<path id="path21_1_" inkscape:export-ydpi="90" inkscape:export-filename="C:\Users\anon\Desktop\logo4.0.png" inkscape:connector-curvature="0" inkscape:export-xdpi="90" fill="#FFFFFF" d="
	M299.8,283.7v-36.8c0-19.4,10.2-28.8,30.7-28.8c8.3,0,14.9,1.9,20.1,5.4c5.9,4.5,8.7,10.6,8.7,18.2c0,3.5-1.4,5.4-4.5,5.4
	c-2.1,0-3.5-1.7-4.5-5.2c-0.5-2.8-1.7-5.7-3.3-8.3c-2.6-4.7-8.3-6.8-17.2-6.8c-7.6,0-13,1.9-16.3,5.7c-3.1,3.5-4.7,9-4.7,16.8v30.7
	c0,8,1.7,13.7,5,17.2c3.5,3.8,9,5.9,16.5,5.9c11.6,0,18.2-4,19.8-12c0.7-3.1,0.9-4.5,0.9-4.7c0.7-1.7,1.9-2.6,3.5-2.6
	c2.8,0,4.5,1.9,4.5,5.4c0,7.3-3.1,13-9.2,17.5c-5,3.3-11.3,5-19.4,5c-9.4,0-16.8-2.1-22.2-6.6C302.8,300,299.8,292.9,299.8,283.7
	L299.8,283.7z"/>
<path id="path23_1_" inkscape:export-ydpi="90" inkscape:export-filename="C:\Users\anon\Desktop\logo4.0.png" inkscape:connector-curvature="0" inkscape:export-xdpi="90" fill="#FFFFFF" d="
	M420.7,303c-4.3,3.1-7.6,5.2-9.9,6.1c-3.1,1.2-6.8,1.9-11.6,1.9c-7.1,0-13-1.4-17.5-4.5c-5.2-3.5-8-8.7-8-15.6
	c0-6.8,2.8-12.3,8.3-16.1c4.7-3.5,10.9-5.2,17.9-5.2c5.9,0,12.5,1.4,20.1,4v-10.4c0-5-2.4-8.5-7.1-10.6c-3.3-1.4-7.3-2.1-12-2.1
	c-11.1,0-17,3.1-18.2,9.2c-0.5,2.8-0.9,4.3-0.9,4.5c-0.7,1.4-1.9,2.1-3.5,2.1c-3.1,0-4.7-1.7-4.7-5c0-4.5,1.7-8.5,5.2-12.3
	c4.3-4.7,12-7.1,22.9-7.1c8.7,0,15.1,1.4,19.4,4.3c5,3.5,7.6,9.4,7.6,17.7v30.2c0,3.5,0.7,5.9,2.1,7.1c0.2,0.2,1.7,0.9,4,1.9
	c1.4,0.7,2.1,1.9,2.1,4c0,2.4-1.2,3.5-3.8,3.5c-0.7,0-1.9-0.2-3.8-0.9c-3.3-1.2-5.4-1.9-5.9-2.1C422.1,307,421.1,305.4,420.7,303
	L420.7,303z M420.2,294.1v-12.5c-6.6-2.1-13-3.3-18.7-3.3c-12.8,0-19.1,4-19.1,12.3c0,4.3,1.9,7.6,5.7,9.4c3.1,1.7,6.8,2.6,11.6,2.6
	c4,0,7.8-0.7,11.1-2.4C413.4,299.3,416.4,297.1,420.2,294.1L420.2,294.1z"/>
<path id="path25_1_" inkscape:export-ydpi="90" inkscape:export-filename="C:\Users\anon\Desktop\logo4.0.png" inkscape:connector-curvature="0" inkscape:export-xdpi="90" fill="#FFFFFF" d="
	M453.7,249.4c2.1-2.6,4-4.5,5.4-5.2c1.9-1.2,4.3-1.9,7.3-1.9c4.7,0,8.7,2.4,12.3,7.3c2.4-2.8,4.5-4.7,6.4-5.7c2.1-1.2,5-1.7,8.3-1.7
	c10.2,0,15.4,5,15.4,14.9v47.9c0,4-1.4,5.9-4.5,5.9c-2.8,0-4.3-1.9-4.3-5.9V260c0-6.1-2.6-9.4-7.6-9.4c-3.8,0-7.6,2.4-10.9,6.8v47.7
	c0,4-1.4,5.9-4.3,5.9s-4.3-1.9-4.3-5.9V261c0-6.8-2.8-10.2-8.3-10.2c-3.5,0-6.8,2.4-10.4,6.8v47.5c0,4-1.4,5.9-4.5,5.9
	c-2.8,0-4.3-1.9-4.3-5.9v-58.6c0-2.8,1.2-4.3,3.5-4.3c1.2,0,2.4,0.9,3.1,2.6C453.3,246.1,453.7,247.8,453.7,249.4L453.7,249.4z"/>
<path id="path27_1_" inkscape:export-ydpi="90" inkscape:export-filename="C:\Users\anon\Desktop\logo4.0.png" inkscape:connector-curvature="0" inkscape:export-xdpi="90" fill="#FFFFFF" d="
	M530.5,249.4c6.6-4.7,14.4-7.1,22.9-7.1c17.9,0,26.9,7.6,26.9,22.4v24.6c0,7.1-2.6,12.5-7.6,16.5c-4.5,3.5-10.6,5.4-18.4,5.4
	c-9.2,0-17-2.4-23.9-7.3v27.9c0,4.3-1.4,6.4-4.3,6.4c-2.8,0-4.3-2.1-4.3-6.4v-83.1c0-4.3,1.2-6.4,3.5-6.4c1.2,0,2.4,0.9,3.3,2.6
	C529.3,246.3,530,248,530.5,249.4L530.5,249.4z M530.5,294.3c6.1,5.4,13.7,8.3,22.4,8.3c5.4,0,9.7-0.9,13-3.1
	c4-2.4,5.9-5.9,5.9-10.4v-24.6c0-5.2-2.1-8.7-6.4-11.1c-3.3-1.7-7.8-2.6-13.2-2.6c-5,0-9,0.7-12,2.1c-2.8,1.2-5.9,3.8-9.7,7.6V294.3
	L530.5,294.3z"/>
<path id="path29_1_" inkscape:export-ydpi="90" inkscape:export-filename="C:\Users\anon\Desktop\logo4.0.png" inkscape:connector-curvature="0" inkscape:export-xdpi="90" fill="#FFFFFF" d="
	M609.6,270.9c0-18.7,6.4-35.2,19.4-49.8c4.7-5.4,8.5-8,11.1-8c0.9,0,1.9,0.2,2.6,0.9c0.7,0.7,1.2,1.4,1.2,2.4c0,1.4-1.7,3.5-5,6.8
	c-13.5,13-20.3,29-20.3,48.2c0,21.3,7.1,38.5,21,51.7c2.8,2.6,4.3,4.7,4.3,6.4c0,0.9-0.5,1.9-1.2,2.6c-0.7,0.7-1.7,1.2-2.6,1.2
	c-3.3,0-7.8-3.8-13.7-11.3C615,308,609.6,291,609.6,270.9L609.6,270.9z"/>
<path id="path31_1_" inkscape:export-ydpi="90" inkscape:export-filename="C:\Users\anon\Desktop\logo4.0.png" inkscape:connector-curvature="0" inkscape:export-xdpi="90" fill="#FFFFFF" d="
	M788.4,275.6c0,18.7-6.4,35.2-19.4,49.8c-4.7,5.4-8.5,8-11.1,8c-0.9,0-1.9-0.2-2.6-0.9s-1.2-1.7-1.2-2.6c0-1.4,1.7-3.5,5-6.6
	c13.5-13,20.3-29,20.3-48.2c0-21.3-7.1-38.5-21-51.7c-2.8-2.6-4.3-4.7-4.3-6.4c0-0.9,0.5-1.9,1.2-2.6c0.7-0.7,1.7-1.2,2.6-1.2
	c3.1,0,7.8,3.8,13.7,11.3C782.7,238.8,788.4,255.8,788.4,275.6L788.4,275.6z"/>
<g id="g33_1_" transform="matrix(2.5023894,0,0,2.5023894,10.019816,292.82522)" inkscape:export-ydpi="90" inkscape:export-filename="C:\Users\anon\Desktop\logo4.0.png" inkscape:export-xdpi="90">
	<path id="path37_1_" inkscape:connector-curvature="0" fill="#FFFFFF" d="M291.6,14.6h-32.7c-1,0-2-0.8-2-2c0-1.1,0.8-2,2-2h32.7
		c1,0,2,0.8,2,2C293.6,13.8,292.8,14.6,291.6,14.6z"/>
</g>
<path fill="#FFFFFF" d="M681.7,223.2c0,0,6.8,4.7,6.8,13.2c0,14.7-20,31.1-20,46.3c0,16.5,12.6,27.3,24.8,30.5
	c1.7,0.4,2.5-1.6,0.3-2.1c-4.9-1.2-10.5-7.7-10.5-17.9c0-9.4,9-12.9,12.7-17.5c3.7-4.7,2.8-10.6,0.7-12.3c-2.2-1.7-0.7-4,3.2-1.3
	s7.2,7.8,6,12.7c-1.5,6.2,0.5,9.8,3.7,10.2c3.2,0.4,6.8-1.2,6.5-4.2c-0.4-3-2.2-6.2-1.1-6.2c2.3,0,7.2,5.7,7.2,14.7
	c0,9-7.5,15.3-9.7,17.7c-1.4,1.4,0.4,3.3,2.3,2.4c0.9-0.4,2.9-1.6,4.2-2.5c5.9-4.2,15.1-12.7,15.1-28.5c0-16.5-6.3-23.9-12.6-30
	c-6.3-6.2-7.9-4.6-6.1-1.6c5.4,9.2,2.1,12.3-1.8,12.3c-4.6,0-4.9-10.4-6.7-18.4c-4-17.7-20-20.7-23-20.9
	C680.8,219.9,678.1,221.7,681.7,223.2z"/>
</svg>
