<?xml version="1.0" encoding="utf-8"?>
<!-- Generator: Adobe Illustrator 18.0.0, SVG Export Plug-In . SVG Version: 6.00 Build 0)  -->
<!DOCTYPE svg PUBLIC "-//W3C//DTD SVG 1.1//EN" "http://www.w3.org/Graphics/SVG/1.1/DTD/svg11.dtd">
<svg version="1.1"
	 id="Layer_1" xmlns:inkscape="http://www.inkscape.org/namespaces/inkscape" xmlns:svg="http://www.w3.org/2000/svg" xmlns:rdf="http://www.w3.org/1999/02/22-rdf-syntax-ns#" xmlns:cc="http://creativecommons.org/ns#" xmlns:dc="http://purl.org/dc/elements/1.1/" xmlns:sodipodi="http://sodipodi.sourceforge.net/DTD/sodipodi-0.dtd" inkscape:export-ydpi="90" inkscape:export-filename="C:\Users\anon\Desktop\vimeoFCC.png" inkscape:version="0.48.5 r10040" sodipodi:docname="FB_CoverFCC.svg" inkscape:export-xdpi="90"
	 xmlns="http://www.w3.org/2000/svg" xmlns:xlink="http://www.w3.org/1999/xlink" x="0px" y="0px" viewBox="-352 145.5 1200 200"
	 enable-background="new -352 145.5 1200 200" xml:space="preserve">
<sodipodi:namedview  id="namedview43" borderlayer="true" borderopacity="1" pagecolor="#ffffff" inkscape:cy="508.0019" bordercolor="#666666" objecttolerance="10" showgrid="false" inkscape:zoom="0.35355339" inkscape:cx="434.50215" guidetolerance="10" gridtolerance="10" inkscape:current-layer="Layer_1" inkscape:showpageshadow="false" inkscape:window-y="-4" inkscape:window-maximized="1" inkscape:window-x="-4" inkscape:pageshadow="2" inkscape:pageopacity="0" inkscape:window-width="1366" inkscape:window-height="705">
	</sodipodi:namedview>
<path id="path5" inkscape:export-ydpi="90" inkscape:export-filename="C:\Users\anon\Desktop\logo4.0.png" inkscape:connector-curvature="0" inkscape:export-xdpi="90" fill="#FFFFFF" d="
	M-287.9,223.1h-9.7c-3.3,0-5.1-1.5-5.1-4.2c0-3,1.8-4.2,5.1-4.2h9.7v-8.5c0-14.8,7.6-22.1,22.4-22.1c6,0,11.2,1.2,15.1,3.3
	c5.1,3,7.9,7.9,7.9,13.6c0,3.9-1.5,5.4-4.2,5.4c-1.8,0-3.6-1.2-4.5-3.3c-1.2-3.9-2.4-6-3-7c-1.8-2.1-5.4-3.3-10.6-3.3
	c-9.1,0-13.6,4.5-13.6,13.6v8.2h17.5c3.9,0,5.7,1.5,5.7,4.2c0,3-1.8,4.2-5.7,4.2h-17.5v55.3c0,3.3-1.5,5.1-4.2,5.1
	c-3,0-4.2-1.8-4.2-5.1v-55.3H-287.9z"/>
<path id="path7" inkscape:export-ydpi="90" inkscape:export-filename="C:\Users\anon\Desktop\logo4.0.png" inkscape:connector-curvature="0" inkscape:export-xdpi="90" fill="#FFFFFF" d="
	M-209.3,273.5v-50.5h-13c-3.6,0-5.4-1.5-5.4-4.2c0-3,1.8-4.2,5.4-4.2h17.5c3,0,4.5,2.7,4.5,7.6c5.4-5.7,11.2-9.1,17.2-9.1
	c5.1,0,9.1,1.5,11.8,4.5c3,3,4.2,7.3,4.2,12.1c0,3.3-1.5,5.1-4.2,5.1c-1.8,0-3-1.2-3.6-3.3c-1.2-4.2-1.8-6.3-2.1-6.6
	c-1.2-2.1-3.6-3.3-6.6-3.3c-3.3,0-6.6,1.2-9.4,3.6c-1.8,1.2-4.2,3.9-7.3,7.9v40.5h16.3c3.6,0,5.4,1.5,5.4,4.2c0,3-1.8,4.5-5.4,4.5
	h-38.7c-3.6,0-5.4-1.5-5.4-4.2c0-3,1.8-4.2,5.4-4.2h13.3V273.5z"/>
<path id="path9" inkscape:export-ydpi="90" inkscape:export-filename="C:\Users\anon\Desktop\logo4.0.png" inkscape:connector-curvature="0" inkscape:export-xdpi="90" fill="#FFFFFF" d="
	M-143.1,249.7v9.7c0,10.3,7.3,15.4,22.1,15.4c5.4,0,9.7-0.6,13-1.8c1.8-0.6,4.8-2.1,9.1-5.1c2.7-2.4,4.5-3.6,5.4-3.6
	c2.4,0,3.6,1.2,3.6,3.9c0,2.7-1.8,5.4-5.4,8.2c-5.7,4.5-14.5,7-26,7c-20.2,0-30.5-7.9-30.5-23.9v-24.2c0-5.4,2.1-10.3,6.3-14.2
	c5.4-5.4,13.9-7.9,24.8-7.9c19.9,0,29.6,10,29.6,29.6c0,4.8-1.8,7.3-5.4,7.3h-46.5V249.7z M-143.1,241.2h43.2
	c0-13-7.3-19.6-22.1-19.6c-5.4,0-10.3,1.2-14.5,3.6c-4.2,3-6.6,6.6-6.6,10.9V241.2z"/>
<path id="path11" inkscape:export-ydpi="90" inkscape:export-filename="C:\Users\anon\Desktop\logo4.0.png" inkscape:connector-curvature="0" inkscape:export-xdpi="90" fill="#FFFFFF" d="
	M-67.2,249.7v9.7c0,10.3,7.3,15.4,22.1,15.4c5.4,0,9.7-0.6,13-1.8c1.8-0.6,4.8-2.1,9.1-5.1c2.7-2.4,4.5-3.6,5.4-3.6
	c2.4,0,3.6,1.2,3.6,3.9c0,2.7-1.8,5.4-5.4,8.2c-5.7,4.5-14.5,7-26,7c-20.2,0-30.5-7.9-30.5-23.9v-24.2c0-5.4,2.1-10.3,6.3-14.2
	c5.4-5.4,13.9-7.9,24.8-7.9c19.9,0,29.6,10,29.6,29.6c0,4.8-1.8,7.3-5.4,7.3h-46.5V249.7z M-67.2,241.2H-24c0-13-7.3-19.6-22.1-19.6
	c-5.4,0-10.3,1.2-14.5,3.6c-4.5,3-6.6,6.6-6.6,10.9V241.2z"/>
<path id="path13" inkscape:export-ydpi="90" inkscape:export-filename="C:\Users\anon\Desktop\logo4.0.png" inkscape:connector-curvature="0" inkscape:export-xdpi="90" fill="#FFFFFF" d="
	M0.8,255.4v-37.8C0.8,197.7,11,188,32.2,188c8.5,0,15.1,1.8,20.6,5.4c6,4.5,9.1,10.9,9.1,18.7c0,3.6-1.5,5.4-4.5,5.4
	c-2.1,0-3.6-1.8-4.5-5.4c-0.6-3-1.8-5.7-3.3-8.5c-2.7-4.8-8.5-7-17.5-7c-7.9,0-13.3,1.8-16.6,5.7c-3,3.6-4.8,9.1-4.8,17.2v31.4
	c0,8.2,1.8,13.9,5.1,17.5c3.6,3.9,9.1,6,16.9,6c11.8,0,18.7-4.2,20.2-12.4c0.6-3,0.9-4.5,0.9-4.8c0.6-1.8,1.8-2.7,3.6-2.7
	c3,0,4.5,1.8,4.5,5.4c0,7.6-3,13.3-9.4,17.8c-5.1,3.3-11.5,5.1-19.9,5.1c-9.7,0-17.2-2.1-22.7-6.6C3.5,272,0.8,264.8,0.8,255.4
	L0.8,255.4z"/>
<path id="path15" inkscape:export-ydpi="90" inkscape:export-filename="C:\Users\anon\Desktop\logo4.0.png" inkscape:connector-curvature="0" inkscape:export-xdpi="90" fill="#FFFFFF" d="
	M75.7,260.5v-24.8c0-15.1,10.3-22.7,30.5-22.7s30.5,7.6,30.5,22.7v24.8c0,15.1-10,22.7-29.9,22.7C85.7,283.5,75.7,275.9,75.7,260.5
	L75.7,260.5z M127.7,260.5v-24.8c0-9.4-7.3-14.2-22.1-14.2c-13.9,0-21.2,4.8-21.2,14.2v24.8c0,9.4,7.3,14.2,21.8,13.9
	C120.4,274.7,127.7,270.2,127.7,260.5z"/>
<path id="path17" inkscape:export-ydpi="90" inkscape:export-filename="C:\Users\anon\Desktop\logo4.0.png" inkscape:connector-curvature="0" inkscape:export-xdpi="90" fill="#FFFFFF" d="
	M202.9,275c-4.2,3-7.9,5.1-10.9,6.3c-3.3,1.2-7.6,1.8-12.4,1.8c-8.2,0-14.8-1.8-19.9-5.1c-5.7-3.9-8.8-9.7-8.8-17.5v-25.4
	c0-7.6,3-13.3,8.5-17.2c4.8-3.3,11.5-5.1,19-5.1c5.1,0,9.4,0.6,12.7,1.8c3.3,1.2,7,3.3,10.9,6.6v-31.1c0-4.2,1.5-6.3,4.2-6.3
	c3,0,4.5,2.1,4.5,6.3V279c0,3-1.5,4.5-4.2,4.5c-1.8,0-3-0.9-3.3-3C203.2,279,202.9,277.5,202.9,275L202.9,275z M202.6,265.1v-34.8
	c-4.2-3-7.9-5.4-10.3-6.3c-3.6-1.5-7.6-2.1-11.8-2.1c-5.4,0-10.3,0.9-13.6,3c-4.2,2.7-6.6,6.6-6.6,11.5v23.9c0,5.1,2.1,9.1,6.6,11.5
	c3.6,1.8,8.2,3,13.9,3c4.5,0,8.8-0.6,12.1-2.1C195.7,270.8,199,268.4,202.6,265.1L202.6,265.1z"/>
<path id="path19" inkscape:export-ydpi="90" inkscape:export-filename="C:\Users\anon\Desktop\logo4.0.png" inkscape:connector-curvature="0" inkscape:export-xdpi="90" fill="#FFFFFF" d="
	M235.9,249.7v9.7c0,10.3,7.3,15.4,22.1,15.4c5.4,0,9.7-0.6,13-1.8c1.8-0.6,4.8-2.1,9.1-5.1c2.7-2.4,4.5-3.6,5.4-3.6
	c2.4,0,3.6,1.2,3.6,3.9c0,2.7-1.8,5.4-5.4,8.2c-5.7,4.5-14.5,7-26,7c-20.2,0-30.5-7.9-30.5-23.9v-24.2c0-5.4,2.1-10.3,6.3-14.2
	c5.4-5.4,13.9-7.9,24.8-7.9c19.9,0,29.6,10,29.6,29.6c0,4.8-1.8,7.3-5.4,7.3h-46.5V249.7z M235.9,241.2h43.2
	c0-13-7.3-19.6-22.1-19.6c-5.4,0-10.3,1.2-14.5,3.6c-4.5,3-6.6,6.6-6.6,10.9V241.2z"/>
<path id="path21" inkscape:export-ydpi="90" inkscape:export-filename="C:\Users\anon\Desktop\logo4.0.png" inkscape:connector-curvature="0" inkscape:export-xdpi="90" fill="#FFFFFF" d="
	M303.9,255.4v-37.8c0-19.9,10.3-29.6,31.4-29.6c8.5,0,15.1,1.8,20.6,5.4c6,4.5,9.1,10.9,9.1,18.7c0,3.6-1.5,5.4-4.5,5.4
	c-2.1,0-3.6-1.8-4.5-5.4c-0.6-3-1.8-5.7-3.3-8.5c-2.7-4.8-8.5-7-17.5-7c-7.9,0-13.3,1.8-16.6,5.7c-3,3.6-4.8,9.1-4.8,17.2v31.4
	c0,8.2,1.8,13.9,5.1,17.5c3.6,3.9,9.1,6,16.9,6c11.8,0,18.7-4.2,20.2-12.4c0.6-3,0.9-4.5,0.9-4.8c0.6-1.8,1.8-2.7,3.6-2.7
	c3,0,4.5,1.8,4.5,5.4c0,7.6-3,13.3-9.4,17.8c-5.1,3.3-11.5,5.1-19.9,5.1c-9.7,0-17.2-2.1-22.7-6.6
	C306.9,272,303.9,264.8,303.9,255.4L303.9,255.4z"/>
<path id="path23" inkscape:export-ydpi="90" inkscape:export-filename="C:\Users\anon\Desktop\logo4.0.png" inkscape:connector-curvature="0" inkscape:export-xdpi="90" fill="#FFFFFF" d="
	M427.5,275c-4.2,3-7.9,5.4-10.3,6.3c-3,1.2-7,1.8-11.8,1.8c-7.3,0-13.3-1.5-17.8-4.5c-5.4-3.6-8.2-9.1-8.2-16c0-7,3-12.7,8.5-16.3
	c4.8-3.6,11.2-5.4,18.4-5.4c6,0,12.7,1.5,20.6,4.2v-10.6c0-5.1-2.4-8.8-7.3-10.9c-3.3-1.5-7.6-2.1-12.4-2.1c-11.5,0-17.5,3-18.7,9.4
	c-0.6,3-0.9,4.2-0.9,4.5c-0.6,1.5-1.8,2.1-3.6,2.1c-3,0-4.8-1.8-4.8-5.1c0-4.5,1.8-8.8,5.4-12.7c4.2-4.8,12.4-7.3,23.6-7.3
	c9.1,0,15.4,1.5,19.9,4.2c5.1,3.6,7.9,9.7,7.9,18.1v30.8c0,3.6,0.6,6,2.1,7.3c0.3,0.3,1.8,0.9,4.2,1.8c1.5,0.6,2.1,1.8,2.1,4.2
	c0,2.4-1.2,3.6-3.9,3.6c-0.6,0-1.8-0.3-3.9-0.9c-3.3-1.2-5.4-1.8-6-2.1C429,279.3,428.1,277.5,427.5,275L427.5,275z M427.2,266
	v-12.7c-6.6-2.1-13.3-3.3-19-3.3c-13,0-19.6,4.2-19.6,12.7c0,4.2,1.8,7.9,5.7,9.7c3,1.8,7,2.7,11.8,2.7c4.2,0,7.9-0.6,11.5-2.4
	C419.9,271.4,423.3,269,427.2,266L427.2,266z"/>
<path id="path25" inkscape:export-ydpi="90" inkscape:export-filename="C:\Users\anon\Desktop\logo4.0.png" inkscape:connector-curvature="0" inkscape:export-xdpi="90" fill="#FFFFFF" d="
	M461.3,220.3c2.1-2.7,4.2-4.5,5.4-5.4c1.8-1.2,4.2-1.8,7.6-1.8c4.8,0,9.1,2.4,12.7,7.6c2.4-3,4.5-4.8,6.6-5.7
	c2.1-1.2,5.1-1.8,8.5-1.8c10.3,0,15.7,5.1,15.7,15.1v49c0,4.2-1.5,6-4.5,6s-4.2-1.8-4.2-6v-45.9c0-6.3-2.7-9.7-7.9-9.7
	c-3.9,0-7.9,2.4-11.2,7v49c0,4.2-1.5,6-4.2,6s-4.2-1.8-4.2-6v-45.3c0-7-3-10.3-8.5-10.3c-3.6,0-7,2.4-10.6,7v48.7c0,4.2-1.5,6-4.5,6
	c-3,0-4.2-1.8-4.2-6v-60.1c0-3,1.2-4.2,3.6-4.2c1.2,0,2.4,0.9,3,2.7C461,217,461.3,218.5,461.3,220.3L461.3,220.3z"/>
<path id="path27" inkscape:export-ydpi="90" inkscape:export-filename="C:\Users\anon\Desktop\logo4.0.png" inkscape:connector-curvature="0" inkscape:export-xdpi="90" fill="#FFFFFF" d="
	M539.9,220.3c6.6-4.8,14.8-7.3,23.6-7.3c18.4,0,27.5,7.9,27.5,23v25.1c0,7.3-2.7,12.7-7.9,16.9c-4.5,3.6-10.9,5.4-18.7,5.4
	c-9.4,0-17.5-2.4-24.5-7.6v28.4c0,4.2-1.5,6.6-4.2,6.6s-4.2-2.1-4.2-6.6v-84.9c0-4.2,1.2-6.6,3.6-6.6c1.2,0,2.4,0.9,3.3,2.7
	C538.7,217,539.6,218.8,539.9,220.3L539.9,220.3z M539.9,266.3c6.3,5.4,13.9,8.5,23,8.5c5.4,0,10-0.9,13.3-3c4.2-2.4,6-6,6-10.6
	v-25.1c0-5.4-2.1-9.1-6.6-11.5c-3.3-1.8-7.9-2.7-13.6-2.7c-5.1,0-9.1,0.6-12.4,2.1c-3,1.2-6,3.9-10,7.9v34.5H539.9z"/>
<path id="path29" inkscape:export-ydpi="90" inkscape:export-filename="C:\Users\anon\Desktop\logo4.0.png" inkscape:connector-curvature="0" inkscape:export-xdpi="90" fill="#FFFFFF" d="
	M620.9,242.4c0-19,6.6-36,19.9-51.1c4.8-5.4,8.8-8.2,11.5-8.2c0.9,0,1.8,0.3,2.7,0.9c0.6,0.6,1.2,1.5,1.2,2.4c0,1.5-1.8,3.6-5.1,7
	c-13.9,13.3-20.9,29.6-20.9,49.3c0,21.8,7.3,39.3,21.5,52.9c3,2.7,4.2,4.8,4.2,6.6c0,0.9-0.6,1.8-1.2,2.7c-0.6,0.6-1.8,1.2-2.7,1.2
	c-3.3,0-7.9-3.9-13.9-11.5C626.4,280.2,620.9,263,620.9,242.4L620.9,242.4z"/>
<path id="path31" inkscape:export-ydpi="90" inkscape:export-filename="C:\Users\anon\Desktop\logo4.0.png" inkscape:connector-curvature="0" inkscape:export-xdpi="90" fill="#FFFFFF" d="
	M804.1,247.2c0,19-6.6,36-19.9,51.1c-4.8,5.4-8.8,8.2-11.5,8.2c-0.9,0-1.8-0.3-2.7-0.9c-0.6-0.6-1.2-1.8-1.2-2.7
	c0-1.5,1.8-3.6,5.1-6.6c13.9-13.3,20.9-29.6,20.9-49.3c0-21.8-7.3-39.3-21.5-52.9c-3-2.7-4.2-4.8-4.2-6.6c0-0.9,0.6-1.8,1.2-2.7
	c0.6-0.6,1.8-1.2,2.7-1.2c3,0,7.9,3.9,13.9,11.5C798,209.5,804.1,226.7,804.1,247.2L804.1,247.2z"/>
<g id="g33" transform="matrix(2.5023894,0,0,2.5023894,10.019816,292.82522)" inkscape:export-ydpi="90" inkscape:export-filename="C:\Users\anon\Desktop\logo4.0.png" inkscape:export-xdpi="90">
	<path id="path37" inkscape:connector-curvature="0" fill="#FFFFFF" d="M297.5,3.8h-33.5c-1.2,0-2.1-0.9-2.1-2.1s0.9-2.1,2.1-2.1
		h33.5c1.2,0,2.1,0.9,2.1,2.1C299.3,2.9,298.7,3.8,297.5,3.8z"/>
</g>
<path fill="#FFFFFF" d="M694.7,193.4c0,0,7,4.8,7,13.6c0,15.1-20.6,31.7-20.6,47.4c0,16.9,13,27.8,25.4,31.1
	c1.8,0.3,2.4-1.5,0.3-2.1c-5.1-1.2-10.6-7.9-10.6-18.1c0-9.7,9.4-13.3,13-17.8c3.9-4.8,3-10.9,0.6-12.7s-0.6-4.2,3.3-1.2
	c3.9,2.7,7.3,8.2,6,13c-1.5,6.3,0.6,10,3.9,10.6c3.3,0.6,7-1.2,6.6-4.2s-2.1-6.3-1.2-6.3c2.4,0,7.3,5.7,7.3,15.1
	c0,9.4-7.6,15.7-10,18.1c-1.5,1.5,0.3,3.3,2.4,2.4c0.9-0.3,3-1.5,4.2-2.4c6-4.2,15.4-13,15.4-29c0-16.9-6.3-24.5-13-30.8
	c-6.6-6.3-8.2-4.8-6.3-1.5c5.4,9.4,2.1,12.7-1.8,12.7c-4.8,0-4.8-10.6-7-18.7c-3.9-18.1-20.6-21.2-23.6-21.5
	C693.8,190.1,691,191.9,694.7,193.4z"/>
</svg>
