<?xml version="1.0" encoding="utf-8"?>
<!-- Generator: Adobe Illustrator 19.0.0, SVG Export Plug-In . SVG Version: 6.00 Build 0)  -->
<svg version="1.1" id="Layer_1" xmlns="http://www.w3.org/2000/svg" xmlns:xlink="http://www.w3.org/1999/xlink" x="0px" y="0px"
	 viewBox="0 0 510.2 680.3" style="enable-background:new 0 0 510.2 680.3;" xml:space="preserve">
<style type="text/css">
	.st0{fill:#FFFFFF;}
</style>
<g>
	<g id="XMLID_92_">
		<path id="XMLID_150_" class="st0" d="M89.9,604.6c-2.3,1.7-4.2,2.8-5.8,3.4c-1.8,0.7-4,1-6.6,1c-4.4,0-7.9-0.9-10.6-2.7
			c-3.1-2.1-4.7-5.3-4.7-9.4V583c0-4,1.5-7.1,4.6-9.2c2.6-1.8,6.1-2.8,10.2-2.8c2.8,0,5.1,0.3,6.9,0.9c1.8,0.6,3.7,1.8,5.8,3.5
			v-16.7c0-2.2,0.7-3.3,2.3-3.3c1.6,0,2.4,1.1,2.4,3.3v47.7c0,1.7-0.7,2.5-2.2,2.5c-0.9,0-1.5-0.5-1.8-1.6
			C90.1,606.6,89.9,605.7,89.9,604.6z M89.6,599.1v-18.8c-2.3-1.7-4.2-2.8-5.6-3.4c-1.9-0.8-4-1.2-6.4-1.2c-3,0-5.4,0.6-7.3,1.7
			c-2.3,1.4-3.4,3.4-3.4,6.1v12.8c0,2.8,1.2,4.9,3.6,6.2c1.9,1.1,4.4,1.6,7.4,1.6c2.5,0,4.6-0.4,6.5-1.2
			C85.9,602.2,87.7,600.9,89.6,599.1z"/>
		<path id="XMLID_153_" class="st0" d="M126.3,604.5c-2.4,1.7-4.2,2.9-5.4,3.4c-1.7,0.7-3.8,1-6.3,1c-3.9,0-7.1-0.8-9.7-2.5
			c-2.9-1.9-4.4-4.8-4.4-8.5s1.5-6.7,4.5-8.9c2.7-1.9,6-2.8,9.9-2.8c3.2,0,6.9,0.7,11.1,2.3v-5.7c0-2.7-1.3-4.6-3.8-5.8
			c-1.8-0.8-4-1.2-6.6-1.2c-6.1,0-9.4,1.7-10,5c-0.3,1.5-0.5,2.4-0.5,2.5c-0.3,0.8-1,1.2-2,1.2c-1.7,0-2.6-0.9-2.6-2.7
			c0-2.4,1-4.7,2.9-6.8c2.4-2.6,6.6-3.9,12.6-3.9c4.8,0,8.3,0.8,10.6,2.4c2.8,1.9,4.1,5.1,4.1,9.7v16.6c0,1.9,0.4,3.3,1.2,4
			c0.1,0.1,0.9,0.5,2.3,1c0.8,0.3,1.2,1.1,1.2,2.3c0,1.3-0.7,2-2.1,2c-0.3,0-1-0.2-2.1-0.5c-1.9-0.6-2.9-1-3.2-1.2
			C127.1,606.7,126.6,605.8,126.3,604.5z M126.1,599.5v-6.9c-3.7-1.2-7.1-1.8-10.3-1.8c-7,0-10.5,2.3-10.5,6.8
			c0,2.3,1.1,4.1,3.2,5.3c1.7,0.9,3.8,1.4,6.3,1.4c2.3,0,4.3-0.4,6.1-1.3C122.3,602.4,124,601.2,126.1,599.5z"/>
		<path id="XMLID_195_" class="st0" d="M146.5,576.4h-6.7c-1.8,0-2.7-0.8-2.7-2.3s0.9-2.3,2.7-2.3h6.7v-12.7c0-2.4,0.8-3.7,2.4-3.7
			s2.4,1.2,2.4,3.7v12.7h12.5c1.8,0,2.7,0.7,2.7,2.3c0,1.6-0.9,2.4-2.7,2.4h-12.5v20.8c0,4.7,2.2,7.1,6.6,7.1c2.3,0,4.6-0.7,6.7-2.1
			c2.1-1.4,3.4-2.1,3.7-2.1c1.4,0,2.1,0.7,2.1,2.1c0,1.7-1.8,3.4-5.3,5.2c-2.4,1.1-5,1.6-7.8,1.6c-7.2,0-10.8-3.9-10.8-11.7V576.4z"
			/>
		<path id="XMLID_197_" class="st0" d="M201.5,604.5c-2.4,1.7-4.2,2.9-5.4,3.4c-1.7,0.7-3.8,1-6.3,1c-3.9,0-7.1-0.8-9.7-2.5
			c-2.9-1.9-4.4-4.8-4.4-8.5s1.5-6.7,4.5-8.9c2.7-1.9,6-2.8,9.9-2.8c3.2,0,6.9,0.7,11.1,2.3v-5.7c0-2.7-1.3-4.6-3.8-5.8
			c-1.8-0.8-4-1.2-6.6-1.2c-6.1,0-9.4,1.7-10,5c-0.3,1.5-0.5,2.4-0.5,2.5c-0.3,0.8-1,1.2-2,1.2c-1.7,0-2.6-0.9-2.6-2.7
			c0-2.4,1-4.7,2.9-6.8c2.4-2.6,6.6-3.9,12.6-3.9c4.8,0,8.3,0.8,10.6,2.4c2.8,1.9,4.1,5.1,4.1,9.7v16.6c0,1.9,0.4,3.3,1.2,4
			c0.1,0.1,0.9,0.5,2.3,1c0.8,0.3,1.2,1.1,1.2,2.3c0,1.3-0.7,2-2.1,2c-0.3,0-1-0.2-2.1-0.5c-1.9-0.6-2.9-1-3.2-1.2
			C202.3,606.7,201.7,605.8,201.5,604.5z M201.2,599.5v-6.9c-3.7-1.2-7.1-1.8-10.3-1.8c-7,0-10.5,2.3-10.5,6.8
			c0,2.3,1.1,4.1,3.2,5.3c1.7,0.9,3.8,1.4,6.3,1.4c2.3,0,4.3-0.4,6.1-1.3C197.4,602.4,199.2,601.2,201.2,599.5z"/>
		<path id="XMLID_200_" class="st0" d="M225.6,600.2c2.9,0,4.4,1.5,4.4,4.5s-1.5,4.5-4.4,4.5c-3,0-4.5-1.5-4.5-4.5
			S222.5,600.2,225.6,600.2z"/>
		<path id="XMLID_202_" class="st0" d="M241.3,596.7v-13.4c0-8.2,5.5-12.3,16.4-12.3c10.9,0,16.3,4.1,16.3,12.3v13.4
			c0,8.2-5.4,12.3-16.1,12.2C246.8,608.9,241.3,604.9,241.3,596.7z M269.3,596.7v-13.4c0-5.1-4-7.6-11.9-7.6
			c-7.6,0-11.4,2.5-11.4,7.6v13.4c0,5.1,3.9,7.6,11.7,7.6C265.5,604.3,269.3,601.8,269.3,596.7z"/>
		<path id="XMLID_205_" class="st0" d="M285,575c3.7-2.6,7.9-3.9,12.7-3.9c9.9,0,14.8,4.1,14.8,12.3v13.5c0,3.8-1.4,6.9-4.2,9.1
			c-2.5,2-5.9,3-10.2,3c-5,0-9.4-1.3-13.1-4v15.4c0,2.4-0.8,3.6-2.3,3.6c-1.6,0-2.4-1.2-2.4-3.6v-45.8c0-2.3,0.6-3.5,1.9-3.5
			c0.7,0,1.3,0.5,1.9,1.5C284.3,573.3,284.7,574.2,285,575z M285,599.7c3.4,3.1,7.5,4.6,12.3,4.6c2.9,0,5.3-0.6,7.2-1.7
			c2.2-1.4,3.3-3.3,3.3-5.7v-13.6c0-2.8-1.2-4.9-3.5-6.2c-1.9-0.9-4.3-1.4-7.3-1.4c-2.7,0-5,0.4-6.6,1.2c-1.5,0.7-3.3,2.1-5.4,4.1
			V599.7z"/>
		<path id="XMLID_208_" class="st0" d="M323,590.8v5.2c0,5.5,3.9,8.3,11.8,8.3c2.9,0,5.2-0.3,7-0.9c0.9-0.3,2.5-1.2,4.9-2.7
			c1.5-1.3,2.4-2,2.8-2c1.3,0,2,0.7,2,2c0,1.4-1,2.9-2.9,4.4c-3.1,2.5-7.8,3.8-14,3.7c-10.9,0-16.3-4.3-16.3-12.9v-13
			c0-3,1.1-5.5,3.3-7.7c3-2.8,7.4-4.2,13.4-4.2c10.7,0,16,5.3,16,15.9c0,2.6-1,3.9-2.9,3.9H323z M323,586.2h23.3
			c0-7-3.9-10.5-11.8-10.5c-2.9,0-5.5,0.6-7.8,1.9c-2.4,1.7-3.7,3.6-3.7,5.8V586.2z"/>
		<path id="XMLID_211_" class="st0" d="M362,575.5c2.4-1.7,4.5-2.9,6.2-3.5c1.6-0.7,3.9-1,6.6-1c9.8,0,14.7,4.1,14.7,12.2v22.4
			c0,2.2-0.8,3.3-2.4,3.3c-1.5,0-2.3-1.1-2.3-3.3v-22.3c0-2.7-0.8-4.6-2.4-5.8c-1.6-1.2-4.2-1.9-7.8-1.9c-2.6,0-4.8,0.5-6.6,1.4
			c-1.5,0.7-3.5,1.9-6,3.8v24.8c0,2.2-0.8,3.3-2.3,3.3c-1.6,0-2.4-1.1-2.4-3.3v-31.8c0-1.9,0.7-2.8,2.3-2.8c0.8,0,1.4,0.6,1.8,1.7
			C361.6,573.7,361.8,574.6,362,575.5z"/>
		<path id="XMLID_213_" class="st0" d="M399.2,589.4c0-10.2,3.6-19.4,10.7-27.4c2.6-3,4.6-4.4,6.1-4.4c0.5,0,1,0.2,1.5,0.6
			c0.4,0.4,0.7,0.8,0.7,1.3c0,0.7-0.9,2-2.7,3.7c-7.4,7.1-11.1,16-11.1,26.5c0,11.7,3.8,21.2,11.5,28.5c1.5,1.5,2.3,2.7,2.3,3.5
			c0,0.6-0.2,1-0.6,1.5c-0.4,0.4-0.9,0.6-1.5,0.6c-1.8,0-4.3-2.1-7.6-6.2C402.2,609.9,399.2,600.5,399.2,589.4z"/>
		<path id="XMLID_215_" class="st0" d="M448.4,592c0,10.3-3.6,19.4-10.7,27.5c-2.6,3-4.6,4.4-6.1,4.4c-0.5,0-1-0.2-1.5-0.6
			c-0.4-0.4-0.7-0.8-0.7-1.4c0-0.7,0.9-2,2.7-3.7c7.4-7.1,11.1-16,11.1-26.5c0-11.6-3.8-21.1-11.5-28.5c-1.5-1.5-2.3-2.6-2.3-3.5
			c0-0.6,0.2-1.1,0.6-1.5c0.4-0.4,0.9-0.7,1.5-0.7c1.7,0,4.3,2.1,7.6,6.3C445.3,571.7,448.4,581.1,448.4,592z"/>
	</g>
	<path id="XMLID_254_" class="st0" d="M386.8,271.7C386.8,271.7,386.8,271.7,386.8,271.7c0-22.7-22.9-42.8-57.8-54.6v18.7
		c24.9,9.5,40.2,23.2,40.2,35.9c0,22.8-48.7,48.4-114,48.4c-65.2,0-114-25.6-114-48.4c0-12.8,15.3-26.4,40.2-35.9v-18.7
		c-34.9,11.9-57.8,31.9-57.8,54.6v25.7c0,36.5,58.9,66,131.6,66c72.7,0,131.6-29.5,131.6-66L386.8,271.7
		C386.8,271.7,386.8,271.7,386.8,271.7z"/>
	<path id="XMLID_235_" class="st0" d="M202.9,263.7c-3.6,0-6.6,3-6.6,6.6v10.4c0,3.6,3,6.6,6.6,6.6c3.6,0,6.6-3,6.6-6.6v-10.4
		C209.5,266.7,206.5,263.7,202.9,263.7z M237.8,255.4c-3.6,0-6.6,3-6.6,6.6V291c0,3.6,3,6.6,6.6,6.6c3.6,0,6.6-3,6.6-6.6V262
		C244.4,258.3,241.4,255.4,237.8,255.4z M237.8,213c-3.6,0-6.6,3-6.6,6.6v23.1c0,3.6,3,6.6,6.6,6.6c3.6,0,6.6-3,6.6-6.6v-23.1
		C244.4,216,241.4,213,237.8,213z M202.9,114.5c-3.6,0-6.6,3-6.6,6.6v19.3c0,3.6,3,6.6,6.6,6.6c3.6,0,6.6-3,6.6-6.6v-19.3
		C209.5,117.5,206.5,114.5,202.9,114.5z M272.7,222.7c-3.6,0-6.6,3-6.6,6.6V291c0,3.6,3,6.6,6.6,6.6c3.6,0,6.6-3,6.6-6.6v-61.8
		C279.3,225.6,276.3,222.7,272.7,222.7z M307.6,259.7c-3.6,0-6.6,3-6.6,6.6v14c0,3.6,3,6.6,6.6,6.6s6.6-3,6.6-6.6v-14
		C314.2,262.7,311.2,259.7,307.6,259.7z M307.6,224.3c-3.6,0-6.6,3-6.6,6.6v14c0,3.6,3,6.6,6.6,6.6s6.6-3,6.6-6.6v-14
		C314.2,227.3,311.2,224.3,307.6,224.3z M202.9,154.8c-3.6,0-6.6,3-6.6,6.6v5.2c0,3.6,3,6.6,6.6,6.6c3.6,0,6.6-3,6.6-6.6v-5.2
		C209.5,157.7,206.5,154.8,202.9,154.8z M307.6,125.5c-3.6,0-6.6,3-6.6,6.6v10.7c0,3.6,3,6.6,6.6,6.6s6.6-3,6.6-6.6v-10.7
		C314.2,128.4,311.2,125.5,307.6,125.5z M272.7,162.4c-3.6,0-6.6,3-6.6,6.6v2.7c0,3.6,3,6.6,6.6,6.6c3.6,0,6.6-3,6.6-6.6V169
		C279.3,165.4,276.3,162.4,272.7,162.4z M237.8,127.8c-3.6,0-6.6,3-6.6,6.6v4.1c0,3.6,3,6.6,6.6,6.6c3.6,0,6.6-3,6.6-6.6v-4.1
		C244.4,130.8,241.4,127.8,237.8,127.8z M237.8,90.7c-3.6,0-6.6,3-6.6,6.6v18.3c0,3.6,3,6.6,6.6,6.6c3.6,0,6.6-3,6.6-6.6V97.3
		C244.4,93.7,241.4,90.7,237.8,90.7z M237.8,153.3c-3.6,0-6.6,3-6.6,6.6v41c0,3.6,3,6.6,6.6,6.6c3.6,0,6.6-3,6.6-6.6v-41
		C244.4,156.2,241.4,153.3,237.8,153.3z M272.7,99.9c-3.6,0-6.6,3-6.6,6.6v41.7c0,3.6,3,6.6,6.6,6.6c3.6,0,6.6-3,6.6-6.6v-41.7
		C279.3,102.8,276.3,99.9,272.7,99.9z M307.6,67c-3.6,0-6.6,3-6.6,6.6v38.9c0,3.6,3,6.6,6.6,6.6s6.6-3,6.6-6.6V73.6
		C314.2,70,311.2,67,307.6,67z M307.6,154.4c-3.6,0-6.6,3-6.6,6.6v50.1c0,3.6,3,6.6,6.6,6.6s6.6-3,6.6-6.6V161
		C314.2,157.3,311.2,154.4,307.6,154.4z M272.7,183.6c-3.6,0-6.6,3-6.6,6.6v17.7c0,3.6,3,6.6,6.6,6.6c3.6,0,6.6-3,6.6-6.6v-17.7
		C279.3,186.6,276.3,183.6,272.7,183.6z M202.9,179.9c-3.6,0-6.6,3-6.6,6.6v60.8c0,3.6,3,6.6,6.6,6.6c3.6,0,6.6-3,6.6-6.6v-60.8
		C209.5,182.8,206.5,179.9,202.9,179.9z"/>
	<g id="XMLID_230_">
		<g id="XMLID_233_">
			<path id="XMLID_234_" class="st0" d="M159.7,155.8c-2.4,0-4.4-2-4.4-4.4v-19.3c0-2.4,2-4.4,4.4-4.4s4.4,2,4.4,4.4v19.3
				C164.1,153.8,162.1,155.8,159.7,155.8z"/>
		</g>
		<g id="XMLID_231_">
			<path id="XMLID_232_" class="st0" d="M169.3,146.2H150c-2.4,0-4.4-2-4.4-4.4s2-4.4,4.4-4.4h19.3c2.4,0,4.4,2,4.4,4.4
				S171.7,146.2,169.3,146.2z"/>
		</g>
	</g>
	<g id="XMLID_219_">
		<g id="XMLID_222_">
			<path id="XMLID_223_" class="st0" d="M359.6,193.8c-1.1,0-2.3-0.4-3.1-1.3l-18-18c-1.7-1.7-1.7-4.5,0-6.2c1.7-1.7,4.5-1.7,6.2,0
				l18,18c1.7,1.7,1.7,4.5,0,6.2C361.8,193.4,360.7,193.8,359.6,193.8z"/>
		</g>
		<g id="XMLID_220_">
			<path id="XMLID_221_" class="st0" d="M341.6,193.8c-1.1,0-2.3-0.4-3.1-1.3c-1.7-1.7-1.7-4.5,0-6.2l18-18c1.7-1.7,4.5-1.7,6.2,0
				c1.7,1.7,1.7,4.5,0,6.2l-18,18C343.8,193.4,342.7,193.8,341.6,193.8z"/>
		</g>
	</g>
	<path id="XMLID_218_" class="st0" d="M255.2,384.2c-72.7,0-131.6-29.5-131.6-66V354c0,36.5,58.9,66,131.6,66
		c72.7,0,131.6-29.5,131.6-66v-35.8C386.8,354.7,327.9,384.2,255.2,384.2z"/>
	<path id="XMLID_217_" class="st0" d="M255.2,440.6c-72.7,0-131.6-29.5-131.6-66v35.8c0,36.5,58.9,66,131.6,66
		c72.7,0,131.6-29.5,131.6-66v-35.8C386.8,411,327.9,440.6,255.2,440.6z"/>
	<path id="XMLID_160_" class="st0" d="M255.2,497c-72.7,0-131.6-29.5-131.6-66v35.8c0,36.5,58.9,66,131.6,66
		c72.7,0,131.6-29.5,131.6-66V431C386.8,467.4,327.9,497,255.2,497z"/>
	<g id="XMLID_155_">
		<g id="XMLID_158_">
			<path id="XMLID_159_" class="st0" d="M221.8,76.7c-0.8,0-1.7-0.3-2.3-1l-13.3-13.3c-1.3-1.3-1.3-3.3,0-4.6c1.3-1.3,3.3-1.3,4.6,0
				l13.3,13.3c1.3,1.3,1.3,3.3,0,4.6C223.5,76.4,222.6,76.7,221.8,76.7z"/>
		</g>
		<g id="XMLID_156_">
			<path id="XMLID_157_" class="st0" d="M208.5,76.7c-0.8,0-1.7-0.3-2.3-1c-1.3-1.3-1.3-3.3,0-4.6l13.3-13.3c1.3-1.3,3.3-1.3,4.6,0
				s1.3,3.3,0,4.6l-13.3,13.3C210.2,76.4,209.4,76.7,208.5,76.7z"/>
		</g>
	</g>
</g>
</svg>
