<?xml version="1.0" encoding="utf-8"?>
<!-- Generator: Adobe Illustrator 19.0.0, SVG Export Plug-In . SVG Version: 6.00 Build 0)  -->
<svg version="1.1" id="Layer_1" xmlns="http://www.w3.org/2000/svg" xmlns:xlink="http://www.w3.org/1999/xlink" x="0px" y="0px"
	 viewBox="0 0 510.2 680.3" style="enable-background:new 0 0 510.2 680.3;" xml:space="preserve">
<style type="text/css">
	.st0{fill:#00DEFF;}
</style>
<path id="XMLID_339_" class="st0" d="M240.8,153.7v-7.4c0-9.9-5-14.9-14.9-14.9h-14.9c-6.6,0-9.9-3.3-9.9-9.9v-7.4
	c0-6.6,3.3-9.9,9.9-9.9h29.7v-5h-29.7c-9.9,0-14.9,5-14.9,14.9v7.4c0,9.9,5,14.9,14.9,14.9H226c6.6,0,9.9,3.3,9.9,9.9v7.4
	c0,6.6-3.3,9.9-9.9,9.9h-29.7v5H226C235.9,168.5,240.8,163.6,240.8,153.7z M148.1,168.5h5v-64.4h19.8v-5h-44.6v5h19.8V168.5z
	 M120,99.2h-5v69.3h5V99.2z M408.7,163.6H374V99.2h-5v69.3h39.6V163.6z M360.7,163.6h-34.7V99.2h-5v69.3h39.6V163.6z M276.6,148.7
	H304l6.1,19.8h5l-20.8-69.3h-7.9l-20.8,69.3h5L276.6,148.7z M290.3,104.2l12.2,39.6h-24.4L290.3,104.2z M189.6,99.2h-5l-5,14.9h5
	L189.6,99.2z M209.7,202.3l-20.8,69.3h14.9l4.6-14.9h25.4l4.6,14.9h14.9l-20.8-69.3H209.7z M212.8,242l8.2-24.8l8.2,24.8H212.8z
	 M141.9,217.2h17.3v54.5H174v-54.5h17.3v-14.9h-49.5V217.2z M303.8,256.8h-29.7v-54.5h-14.9v69.3h44.6V256.8z M345.8,202.3
	L327,234.5v-32.2h-14.9v69.3H327v-32.2l18.8,32.2h15.8L340.8,237l20.8-34.7H345.8z M152.5,305.4v54.5c0,9.9,5,14.9,14.9,14.9h14.9
	c9.9,0,14.9-5,14.9-14.9v-54.5h-5v54.5c0,6.6-3.3,9.9-9.9,9.9h-14.9c-6.6,0-9.9-3.3-9.9-9.9v-54.5H152.5z M278.3,374.7h5v-64.4h19.8
	v-5h-44.6v5h19.8V374.7z M250.2,374.7v-69.3h-5v59.4l-34.7-59.4h-5v69.3h5v-59.4l34.7,59.4H250.2z M316.3,305.4h-5v69.3h5V305.4z
	 M329.8,305.4h-5v69.3h39.6v-5h-34.7V305.4z M84,477.9v-54.5h17.3v-14.9H51.8v14.9h17.3v54.5H84z M458.4,463.1h-29.7v-12.4h29.7
	v-14.9h-29.7v-12.4h29.7v-14.9h-44.6v69.3h44.6V463.1z M295.1,428.4v29.7c0,13.2,6.6,19.8,19.8,19.8h12.4c13.2,0,19.8-6.6,19.8-19.8
	v-29.7c0-13.2-6.6-19.8-19.8-19.8h-12.4C301.7,408.6,295.1,415.2,295.1,428.4z M310,428.4c0-3.3,1.7-5,5-5h12.4c3.3,0,5,1.7,5,5
	v29.7c0,3.3-1.7,5-5,5h-12.4c-3.3,0-5-1.7-5-5V428.4z M355.7,408.6v69.3h29.7c13.2,0,19.8-6.6,19.8-19.8v-29.7
	c0-13.2-6.6-19.8-19.8-19.8H355.7z M390.4,428.4v29.7c0,3.3-1.7,5-5,5h-14.9v-39.6h14.9C388.7,423.5,390.4,425.1,390.4,428.4z
	 M212.7,423.5v-14.9h-44.6v69.3h44.6v-14.9H183v-12.4h29.7v-14.9H183v-12.4H212.7z M124.5,450.7h19.8v27.2h14.9v-69.3h-14.9v27.2
	h-19.8v-27.2h-14.9v69.3h14.9V450.7z M262.2,423.5H287v-14.9h-24.8c-13.2,0-19.8,6.6-19.8,19.8v29.7c0,13.2,6.6,19.8,19.8,19.8H287
	v-14.9h-24.8c-3.3,0-5-1.7-5-5v-29.7C257.2,425.1,258.9,423.5,262.2,423.5z M245.9,566.2c0,6.6-3.3,9.9-9.9,9.9h-14.9
	c-6.6,0-9.9-3.3-9.9-9.9v-54.5h-5v54.5c0,9.9,5,14.9,14.9,14.9H236c9.9,0,14.9-5,14.9-14.9v-54.5h-5V566.2z M299,571.2l-34.7-59.4
	h-5v69.3h5v-59.4l34.7,59.4h5v-69.3h-5V571.2z M9.9,241.4l34.1,22.1l2.8-4.3l-30.8-20l30.8-20l-2.8-4.3L9.9,237.2
	c-0.7,0.5-1.2,1.3-1.2,2.1S9.2,240.9,9.9,241.4z M64.8,208.2h-5.1v45.9h5.1V208.2z M64.8,261.7h-5.1v8.7h5.1V261.7z M99.8,236.8
	H79.1v5.1h20.6V236.8z M131.9,236.8h-20.6v5.1h20.6V236.8z M466.3,263.5l34.1-22.1c0.7-0.5,1.2-1.3,1.2-2.1s-0.4-1.7-1.2-2.1
	l-34.1-22.1l-2.8,4.3l30.8,20l-30.8,20L466.3,263.5z M445.6,236.8H425v5.1h20.6V236.8z M413.5,236.8h-20.6v5.1h20.6V236.8z
	 M499.9,439.1c-6.6-2.6-10.9-8.1-10.9-14v-34.7c0-11.4-11-20.7-24.6-20.7h-45.4c-2.8,0-5.1,2.3-5.1,5.1h50.5
	c10.8,0,19.6,7,19.6,15.6v34.7c0,7.6,5,14.6,12.8,18.2c-7.8,3.6-12.8,10.6-12.8,18.2v34.7c0,8.6-8.8,15.6-19.6,15.6H327.1
	c-9.9,0-14.9,5-14.9,14.9v7.4c0,9.9,5,14.9,14.9,14.9H342c6.6,0,9.9,3.3,9.9,9.9v7.4c0,6.6-3.3,9.9-9.9,9.9h-29.7v5H342
	c9.9,0,14.9-5,14.9-14.9v-7.4c0-9.9-5-14.9-14.9-14.9h-14.9c-6.6,0-9.9-3.3-9.9-9.9v-7.4c0-6.6,3.3-9.8,9.9-9.8h137.2
	c13.6,0,24.6-9.3,24.6-20.7v-34.7c0-5.9,4.3-11.4,10.9-14c1.8-0.7,3-2.3,3-4.1C502.9,441.4,501.8,439.9,499.9,439.1z M183.1,511.8
	H45.9c-10.8,0-19.6-7-19.6-15.6v-34.7c0-7.6-5-14.6-12.8-18.2c7.8-3.6,12.8-10.6,12.8-18.2v-34.7c0-8.6,8.8-15.6,19.6-15.6h55.4
	c0-2.8-2.3-5.1-5.1-5.1H45.9c-13.6,0-24.6,9.3-24.6,20.7v34.7c0,5.9-4.3,11.4-10.9,14c-1.8,0.7-3,2.3-3,4.1c0,1.8,1.1,3.4,3,4.1
	c6.6,2.6,10.9,8.1,10.9,14v34.7c0,11.4,11,20.7,24.6,20.7h137.2c6.6,0,9.9,3.2,9.9,9.8v7.4c0,6.6-3.3,9.9-9.9,9.9h-24.8v-19.5h-5
	v56.7h5v-32.2h23.2l11.5,32.2h5l-11.6-32.4c7.7-1,11.6-5.9,11.6-14.7v-7.4C198,516.7,193,511.8,183.1,511.8z"/>
</svg>
