<svg xmlns="http://www.w3.org/2000/svg" width="70" height="70" viewBox="0 0 70 70"><title>outline-certificate</title><polygon points="13 15 13 18 55 18 55 37.69 58 39 58 15 13 15" fill="#ededed"/><path d="M42,24H18V22H42ZM32,27H18v2H32Zm0,5H18v2H32ZM59,15V47a1,1,0,0,1-1,1H55.6a1,1,0,0,1-.39,1l-1.48,1.07.08,1.83a1,1,0,0,1-.82,1l-1.79.32-.2.47v8.12a1,1,0,0,1-.49.86.94.94,0,0,1-.51.14,1,1,0,0,1-.48-.12l-4-2.23-4,2.23A1,1,0,0,1,40,61.84V53.7l-.19-.45L38,52.93a1,1,0,0,1-.82-1l.08-1.83L35.79,49a1,1,0,0,1-.38-1H13a1,1,0,0,1-1-1V15a1,1,0,0,1,1-1H58A1,1,0,0,1,59,15ZM49,55.42,47.53,55l-1.37,1.21a1,1,0,0,1-1.32,0L43.47,55,42,55.42v4.72l3-1.67a1,1,0,0,1,1,0l3,1.67ZM53.19,48l.14-.1-.71-1.32a.91.91,0,0,1-.11-.58,1,1,0,0,1,.11-.37l.71-1.31-1.21-.87a1,1,0,0,1-.41-.86l.07-1.49-1.47-.26a1,1,0,0,1-.74-.59L49,38.88l-1.43.4a1,1,0,0,1-.93-.22l-1.12-1-1.12,1a1,1,0,0,1-.93.22L42,38.88l-.59,1.37a1,1,0,0,1-.74.59l-1.47.26.07,1.49a1,1,0,0,1-.41.86l-1.21.87.71,1.31a1,1,0,0,1,.11.37.91.91,0,0,1-.11.58l-.71,1.32.14.1,1.07.77a1,1,0,0,1,.41.86l-.07,1.48.78.14.69.13a1,1,0,0,1,.74.59L42,53.29l0,0,1.43-.4a1.24,1.24,0,0,1,.27,0,1,1,0,0,1,.66.24l1.12,1,1.12-1a1,1,0,0,1,.93-.21l1.43.4,0,0L49.57,52a1,1,0,0,1,.74-.59l.69-.13.78-.14-.07-1.49a1,1,0,0,1,.41-.85ZM57,16H14V46H36.31l-.81-1.5a1,1,0,0,1,.29-1.28l1.48-1.07-.08-1.83a1,1,0,0,1,.82-1l1.8-.32.71-1.68a1,1,0,0,1,1.19-.58l1.76.49L44.84,36a1,1,0,0,1,1.32,0l1.37,1.2,1.76-.49a1,1,0,0,1,1.19.58L51.2,39l1.79.32a1,1,0,0,1,.82,1l-.08,1.83,1.48,1.07a1,1,0,0,1,.29,1.28L54.69,46H57ZM49,46.5A3.5,3.5,0,1,0,45.5,50,3.5,3.5,0,0,0,49,46.5Zm-2,0A1.5,1.5,0,1,1,45.5,45,1.5,1.5,0,0,1,47,46.5Z" fill="#006400"/></svg>