<svg xmlns="http://www.w3.org/2000/svg" width="70" height="70" viewBox="0 0 70 70"><title>outline-tent</title><polygon points="19.4 55 17.49 58 4 58 6.25 55 19.4 55" fill="#ededed"/><polygon points="64 58 50.51 58 48.61 55 61.75 55 64 58" fill="#ededed"/><path d="M65.14,57.4,35.39,17.62l3.19-4.17A1,1,0,0,0,37,12.23l-3,3.91-3-3.91a1,1,0,1,0-1.59,1.22l3.19,4.17L2.86,57.4a1,1,0,0,0,.8,1.6H64.34a1,1,0,0,0,.8-1.6Zm-48-10.84L30.26,36.27,18.69,54.36ZM34,34.13,48.63,57h-9a9.18,9.18,0,0,0-.32-8.76,1,1,0,0,0-1.85.26,8.4,8.4,0,0,1-1.37,3,16.56,16.56,0,0,0,.07-1.69,6.55,6.55,0,0,0-4.45-5.94,1,1,0,0,0-1.36.93,8.58,8.58,0,0,1-1.43,4.8,9.34,9.34,0,0,0-1.46,4A7,7,0,0,0,27.91,57H19.37ZM49.31,54.36,37.74,36.27,50.83,46.56ZM30.16,57a4.63,4.63,0,0,1-.72-3.24,7.51,7.51,0,0,1,1.2-3.18,10.87,10.87,0,0,0,1.58-4.18,4.17,4.17,0,0,1,1.93,3.42A15.28,15.28,0,0,1,34,52.43c-.11.69-.21,1.34.38,1.78a1.43,1.43,0,0,0,1.5,0,5.93,5.93,0,0,0,2.61-2.7A6.65,6.65,0,0,1,37.28,57Zm20.67,0,2.07-10.66a1,1,0,0,0-.36-1L34.62,31.27a1,1,0,0,0-1.24,0L15.45,45.37a1,1,0,0,0-.36,1L17.16,57H5.66L34,19.1,62.34,57Z" fill="#006400"/></svg>