<svg xmlns="http://www.w3.org/2000/svg" width="70" height="70" viewBox="0 0 70 70"><title>outline-experience</title><polygon points="10 17 12.15 19 56 19 56 35 59 35 59 16 10 16 10 17" fill="#ededed"/><path d="M62.72,49.45,60,47.75V16a1,1,0,0,0-1-1H41V11a1,1,0,0,0-1-1H28a1,1,0,0,0-1,1v4H9a.42.42,0,0,0-.16,0A1,1,0,0,0,8,16V54a1,1,0,0,0,1,1H44.69l2,1.25.45,3.3,3.32-.24,2.31,2.4,2.55-2.14,3.27.58.8-3.23,3-1.45-1.26-3.09ZM58,35H51V30H49V17h9ZM29,12H39v3H29Zm18,5V30H45v5H23V30H21V17Zm2,15v4.2a.8.8,0,0,1-.8.8h-.4a.8.8,0,0,1-.8-.8V32ZM10,17h9V30H17v5H10ZM21,32v4.2a.8.8,0,0,1-.8.8h-.4a.8.8,0,0,1-.8-.8V32ZM44.68,53H10V37h7.12a2.81,2.81,0,0,0,2.68,2h.4a2.81,2.81,0,0,0,2.68-2H45.12a2.81,2.81,0,0,0,2.68,2h.4a2.81,2.81,0,0,0,2.68-2H58v7.49l-1.88.14-2.31-2.4-2.55,2.14L48,43.79,47.19,47l-3,1.45,1.26,3.09ZM60,50.31l-1,2,.9,2.22-1,.51-1.1.53-.58,2.32-2.36-.42L52.93,59l-1.66-1.73-2.38.17L48.56,55l-.08,0-2-1.21.42-.79.71-1.33-.9-2.21,2.16-1,.57-2.32,2.36.42L53.67,45l1.66,1.73,2.39-.17L58,48.59l0,.3,2,1.22.08,0Z" fill="#006400"/></svg>