<svg xmlns="http://www.w3.org/2000/svg" width="70" height="70" viewBox="0 0 70 70"><title>solid-tent</title><path d="M39.06,55.34l-.15.16H30l-.15-.17a6.26,6.26,0,0,1-1.41-4.93,9.34,9.34,0,0,1,1.46-3.94,9.55,9.55,0,0,0,1.57-5.29v-.73l.68.26c.72.28,4.29,1.86,4.31,5.71a17.48,17.48,0,0,1-.24,3l0,.14c1.93-1.06,2.69-4.33,2.7-4.37l.29-1.28.63,1.15A8.8,8.8,0,0,1,39.06,55.34ZM11.38,47,3.2,57.9A1,1,0,0,0,3.11,59,1,1,0,0,0,4,59.5H14.94ZM19.5,36.07l.49-.21c3.75-1.62,8-3.4,10.81-4.6l2.7-1.14a3,3,0,0,1,2.35,0l2.7,1.14c2.84,1.2,7.06,3,10.81,4.6l.49.21L35.8,17.3l3.13-4.08L37.34,12l-2.67,3.49L32,12l-1.59,1.22,3.13,4.08ZM66.14,57.9,58,47,54.4,59.5H65.34a1,1,0,0,0,.9-.55A1,1,0,0,0,66.14,57.9Zm-9-15.5L56.47,45l-.68,2.43L53,57.5l-.56,2H16.91l-.56-2-2.8-10.1L12.87,45l-.71-2.57a1,1,0,0,1,.57-1.19l4.37-1.89,3.68-1.58c5.32-2.29,11.6-4.93,13.5-5.74a1,1,0,0,1,.77,0c1.91.81,8.18,3.45,13.5,5.74l3.68,1.58,4.37,1.89A1,1,0,0,1,57.18,42.4ZM49.52,57.5,34.67,33.08,19.82,57.5Z" fill="#006400"/></svg>