<svg xmlns="http://www.w3.org/2000/svg" width="70" height="70" viewBox="0 0 70 70"><title>solid-experience</title><path d="M57.5,11.5h-17v-4a1,1,0,0,0-1-1h-10a1,1,0,0,0-1,1v4h-17a1,1,0,0,0-1,1v16h21v-2a1,1,0,0,1,1-1h4a1,1,0,0,1,1,1v2h21v-16A1,1,0,0,0,57.5,11.5Zm-19,0h-8v-3h8Zm20,19V40.74h0L56.83,38l-2.93,1.21L51,38l-1.65,2.7-3.08.74.25,3.16L44.43,47l2.06,2.41v0h-35a1,1,0,0,1-1-1v-18h21v2a1,1,0,0,0,1,1h4a1,1,0,0,0,1-1v-2ZM53.91,41.42,56,40.54l1.19,2,2.23.53-.18,2.28L60.75,47l-1.49,1.74.18,2.28-2.23.53-1.19,2-2.11-.88-2.11.88-1.19-2-2.23-.53.18-2.28L47.07,47l1.49-1.74L48.37,43l2.23-.53,1.19-2ZM33.5,31.5h2v-4h-2Z" fill="#006400"/></svg>